<svg width="359" height="117" viewBox="0 0 359 117" fill="none" xmlns="http://www.w3.org/2000/svg">
<g filter="url(#filter0_d_7_696)">
<path d="M23.168 51.576C21.2907 50.936 19.584 50.296 18.048 49.656C16.512 48.9733 15.1893 48.1627 14.08 47.224C12.9707 46.2853 12.096 45.176 11.456 43.896C10.8587 42.5733 10.56 40.9733 10.56 39.096C10.56 35.4693 11.9467 32.568 14.72 30.392C17.536 28.216 21.4613 27.128 26.496 27.128C28.3307 27.128 30.0373 27.256 31.616 27.512C33.1947 27.768 34.5387 28.1733 35.648 28.728C36.8 29.24 37.696 29.9227 38.336 30.776C38.976 31.5867 39.296 32.5467 39.296 33.656C39.296 34.7653 39.04 35.7253 38.528 36.536C38.016 37.304 37.3973 37.9653 36.672 38.52C35.7333 37.9227 34.4747 37.4107 32.896 36.984C31.3173 36.5147 29.5893 36.28 27.712 36.28C25.792 36.28 24.384 36.5573 23.488 37.112C22.592 37.624 22.144 38.2853 22.144 39.096C22.144 39.736 22.4213 40.2693 22.976 40.696C23.5307 41.08 24.3627 41.4427 25.472 41.784L28.864 42.872C32.8747 44.152 35.9467 45.7947 38.08 47.8C40.256 49.7627 41.344 52.4507 41.344 55.864C41.344 59.4907 39.9147 62.4347 37.056 64.696C34.1973 66.9147 29.9947 68.024 24.448 68.024C22.4853 68.024 20.6507 67.8533 18.944 67.512C17.28 67.2133 15.808 66.7653 14.528 66.168C13.2907 65.528 12.3093 64.76 11.584 63.864C10.9013 62.9253 10.56 61.8587 10.56 60.664C10.56 59.4267 10.9227 58.3813 11.648 57.528C12.3733 56.632 13.1627 55.9493 14.016 55.48C15.2107 56.4187 16.6613 57.2293 18.368 57.912C20.1173 58.5947 22.016 58.936 24.064 58.936C26.1547 58.936 27.6267 58.616 28.48 57.976C29.3333 57.336 29.76 56.5893 29.76 55.736C29.76 54.8827 29.4187 54.2427 28.736 53.816C28.0533 53.3467 27.0933 52.8987 25.856 52.472L23.168 51.576ZM55.916 29.368C56.6413 28.9413 57.7293 28.536 59.18 28.152C60.6733 27.768 62.1667 27.576 63.66 27.576C65.7933 27.576 67.6707 27.896 69.292 28.536C70.956 29.1333 72.0227 30.0933 72.492 31.416C73.26 33.6347 74.092 36.216 74.988 39.16C75.884 42.104 76.78 45.1547 77.676 48.312C78.572 51.4267 79.4467 54.52 80.3 57.592C81.1533 60.6213 81.9 63.3093 82.54 65.656C82.028 66.2533 81.26 66.7227 80.236 67.064C79.212 67.448 77.996 67.64 76.588 67.64C75.564 67.64 74.6893 67.5547 73.964 67.384C73.2813 67.2133 72.7053 66.9573 72.236 66.616C71.8093 66.2747 71.4467 65.8267 71.148 65.272C70.892 64.7173 70.6573 64.0773 70.444 63.352L69.292 58.936H57.708C57.3667 60.216 57.0253 61.5387 56.684 62.904C56.3427 64.2693 56.0013 65.592 55.66 66.872C55.0627 67.0853 54.4227 67.256 53.74 67.384C53.1 67.5547 52.3107 67.64 51.372 67.64C49.196 67.64 47.5747 67.2773 46.508 66.552C45.484 65.784 44.972 64.7387 44.972 63.416C44.972 62.8187 45.0573 62.2213 45.228 61.624C45.3987 61.0267 45.5907 60.3227 45.804 59.512C46.1027 58.36 46.508 56.9307 47.02 55.224C47.5747 53.5173 48.172 51.6827 48.812 49.72C49.452 47.7147 50.1347 45.6667 50.86 43.576C51.5853 41.4853 52.268 39.5227 52.908 37.688C53.548 35.8107 54.124 34.1467 54.636 32.696C55.1907 31.2453 55.6173 30.136 55.916 29.368ZM63.596 37.624C62.9987 39.416 62.316 41.4213 61.548 43.64C60.8227 45.816 60.1613 48.0347 59.564 50.296H67.5C66.9027 47.992 66.284 45.752 65.644 43.576C65.0467 41.3573 64.492 39.3733 63.98 37.624H63.596ZM105.262 66.744C104.793 66.872 104.067 67 103.086 67.128C102.105 67.256 101.145 67.32 100.206 67.32C98.2433 67.32 96.7713 67 95.79 66.36C94.8087 65.6773 94.318 64.2693 94.318 62.136V53.496C93.2513 51.9173 92.0993 50.168 90.862 48.248C89.6247 46.328 88.4087 44.3653 87.214 42.36C86.0193 40.3547 84.91 38.392 83.886 36.472C82.862 34.5093 82.03 32.7173 81.39 31.096C81.9447 30.328 82.6913 29.624 83.63 28.984C84.6113 28.344 85.806 28.024 87.214 28.024C88.878 28.024 90.222 28.3653 91.246 29.048C92.3127 29.7307 93.3153 31.0107 94.254 32.888L99.566 43.576H99.95C100.547 42.2533 101.059 41.0587 101.486 39.992C101.955 38.8827 102.403 37.7947 102.83 36.728C103.257 35.6187 103.705 34.488 104.174 33.336C104.643 32.1413 105.177 30.776 105.774 29.24C106.542 28.856 107.395 28.5573 108.334 28.344C109.273 28.1307 110.169 28.024 111.022 28.024C112.515 28.024 113.774 28.4293 114.798 29.24C115.865 30.008 116.398 31.1813 116.398 32.76C116.398 33.272 116.291 33.8907 116.078 34.616C115.865 35.3413 115.374 36.4507 114.606 37.944C113.838 39.3947 112.707 41.3787 111.214 43.896C109.763 46.4133 107.779 49.6987 105.262 53.752V66.744ZM154.249 36.024C150.963 36.024 148.446 37.0267 146.697 39.032C144.947 41.0373 144.073 43.8747 144.073 47.544C144.073 51.256 145.033 54.1147 146.953 56.12C148.915 58.1253 151.539 59.128 154.825 59.128C156.574 59.128 158.046 58.8933 159.241 58.424C160.478 57.9547 161.651 57.4213 162.761 56.824C163.486 57.4213 164.041 58.1467 164.425 59C164.851 59.8107 165.065 60.7707 165.065 61.88C165.065 63.6293 164.083 65.1227 162.121 66.36C160.201 67.5547 157.257 68.152 153.289 68.152C150.43 68.152 147.742 67.7467 145.225 66.936C142.707 66.1253 140.51 64.888 138.633 63.224C136.755 61.5173 135.262 59.384 134.153 56.824C133.086 54.2213 132.553 51.128 132.553 47.544C132.553 44.216 133.065 41.2933 134.089 38.776C135.155 36.216 136.585 34.0613 138.377 32.312C140.211 30.5627 142.345 29.24 144.777 28.344C147.209 27.448 149.811 27 152.585 27C156.51 27 159.539 27.64 161.673 28.92C163.849 30.2 164.937 31.8427 164.937 33.848C164.937 34.9573 164.659 35.9173 164.104 36.728C163.55 37.5387 162.91 38.1787 162.185 38.648C161.075 37.9227 159.881 37.304 158.601 36.792C157.363 36.28 155.913 36.024 154.249 36.024ZM205.723 66.744C205.254 66.872 204.507 67 203.483 67.128C202.502 67.256 201.52 67.32 200.539 67.32C199.558 67.32 198.683 67.2347 197.915 67.064C197.19 66.936 196.571 66.68 196.059 66.296C195.547 65.912 195.163 65.3787 194.907 64.696C194.651 64.0133 194.523 63.1173 194.523 62.008V52.024H182.235V66.744C181.766 66.872 181.019 67 179.995 67.128C179.014 67.256 178.032 67.32 177.051 67.32C176.07 67.32 175.195 67.2347 174.427 67.064C173.702 66.936 173.083 66.68 172.571 66.296C172.059 65.912 171.675 65.3787 171.419 64.696C171.163 64.0133 171.035 63.1173 171.035 62.008V28.216C171.504 28.1307 172.251 28.024 173.275 27.896C174.299 27.7253 175.28 27.64 176.219 27.64C177.2 27.64 178.054 27.7253 178.779 27.896C179.547 28.024 180.187 28.28 180.699 28.664C181.211 29.048 181.595 29.5813 181.851 30.264C182.107 30.9467 182.235 31.8427 182.235 32.952V43.192H194.523V28.216C194.992 28.1307 195.739 28.024 196.763 27.896C197.787 27.7253 198.768 27.64 199.707 27.64C200.688 27.64 201.542 27.7253 202.267 27.896C203.035 28.024 203.675 28.28 204.187 28.664C204.699 29.048 205.083 29.5813 205.339 30.264C205.595 30.9467 205.723 31.8427 205.723 32.952V66.744ZM214.035 34.168C214.035 32.3333 214.568 30.8827 215.635 29.816C216.702 28.7493 218.152 28.216 219.987 28.216H241.107C241.406 28.6853 241.662 29.304 241.875 30.072C242.131 30.84 242.259 31.6507 242.259 32.504C242.259 34.1253 241.896 35.2773 241.171 35.96C240.488 36.6427 239.571 36.984 238.419 36.984H224.915V42.936H239.315C239.614 43.4053 239.87 44.024 240.083 44.792C240.339 45.5173 240.467 46.3067 240.467 47.16C240.467 48.7813 240.126 49.9333 239.443 50.616C238.76 51.2987 237.843 51.64 236.691 51.64H224.915V58.36H241.363C241.662 58.8293 241.918 59.448 242.131 60.216C242.387 60.984 242.515 61.7947 242.515 62.648C242.515 64.2693 242.152 65.4427 241.427 66.168C240.744 66.8507 239.827 67.192 238.675 67.192H219.987C218.152 67.192 216.702 66.6587 215.635 65.592C214.568 64.5253 214.035 63.0747 214.035 61.24V34.168ZM249.098 34.168C249.098 32.3333 249.631 30.8827 250.698 29.816C251.764 28.7493 253.215 28.216 255.05 28.216H276.17C276.468 28.6853 276.724 29.304 276.938 30.072C277.194 30.84 277.322 31.6507 277.322 32.504C277.322 34.1253 276.959 35.2773 276.234 35.96C275.551 36.6427 274.634 36.984 273.482 36.984H259.978V42.936H274.378C274.676 43.4053 274.932 44.024 275.146 44.792C275.402 45.5173 275.53 46.3067 275.53 47.16C275.53 48.7813 275.188 49.9333 274.506 50.616C273.823 51.2987 272.906 51.64 271.754 51.64H259.978V58.36H276.426C276.724 58.8293 276.98 59.448 277.194 60.216C277.45 60.984 277.578 61.7947 277.578 62.648C277.578 64.2693 277.215 65.4427 276.49 66.168C275.807 66.8507 274.89 67.192 273.738 67.192H255.05C253.215 67.192 251.764 66.6587 250.698 65.592C249.631 64.5253 249.098 63.0747 249.098 61.24V34.168ZM300.025 37.176H284.281C283.982 36.7067 283.705 36.0667 283.449 35.256C283.193 34.4453 283.065 33.592 283.065 32.696C283.065 31.032 283.427 29.8373 284.153 29.112C284.921 28.3867 285.902 28.024 287.097 28.024H310.969C312.846 29.56 313.785 31.608 313.785 34.168C313.785 35.2347 313.529 36.3013 313.017 37.368C312.547 38.392 311.929 39.3733 311.161 40.312L296.633 57.848H313.017C313.315 58.3173 313.593 58.9573 313.849 59.768C314.105 60.5787 314.233 61.432 314.233 62.328C314.233 63.992 313.849 65.1867 313.081 65.912C312.355 66.6373 311.395 67 310.201 67H284.985C284.259 66.4027 283.662 65.592 283.193 64.568C282.723 63.544 282.489 62.3707 282.489 61.048C282.489 59.9813 282.766 58.8933 283.321 57.784C283.875 56.6747 284.537 55.6507 285.305 54.712L300.025 37.176ZM320.285 34.168C320.285 32.3333 320.818 30.8827 321.885 29.816C322.952 28.7493 324.402 28.216 326.237 28.216H347.357C347.656 28.6853 347.912 29.304 348.125 30.072C348.381 30.84 348.509 31.6507 348.509 32.504C348.509 34.1253 348.146 35.2773 347.421 35.96C346.738 36.6427 345.821 36.984 344.669 36.984H331.165V42.936H345.565C345.864 43.4053 346.12 44.024 346.333 44.792C346.589 45.5173 346.717 46.3067 346.717 47.16C346.717 48.7813 346.376 49.9333 345.693 50.616C345.01 51.2987 344.093 51.64 342.941 51.64H331.165V58.36H347.613C347.912 58.8293 348.168 59.448 348.381 60.216C348.637 60.984 348.765 61.7947 348.765 62.648C348.765 64.2693 348.402 65.4427 347.677 66.168C346.994 66.8507 346.077 67.192 344.925 67.192H326.237C324.402 67.192 322.952 66.6587 321.885 65.592C320.818 64.5253 320.285 63.0747 320.285 61.24V34.168Z" fill="white"/>
</g>
<g filter="url(#filter1_d_7_696)">
<path d="M91.344 89.6C92.24 89.6 92.9227 89.3973 93.392 88.992C93.8827 88.5653 94.128 87.9253 94.128 87.072C94.128 86.2613 93.872 85.6427 93.36 85.216C92.8693 84.768 92.144 84.544 91.184 84.544C90.8427 84.544 90.5547 84.5547 90.32 84.576C90.1067 84.576 89.8827 84.5973 89.648 84.64V89.6H91.344ZM89.68 99.872C89.4453 99.936 89.072 100 88.56 100.064C88.0693 100.128 87.5787 100.16 87.088 100.16C86.5973 100.16 86.16 100.117 85.776 100.032C85.4133 99.968 85.104 99.84 84.848 99.648C84.592 99.456 84.4 99.1893 84.272 98.848C84.144 98.5067 84.08 98.0587 84.08 97.504V82.432C84.08 81.984 84.1973 81.6427 84.432 81.408C84.688 81.152 85.0293 80.9493 85.456 80.8C86.1813 80.544 87.0027 80.3627 87.92 80.256C88.8587 80.128 89.7973 80.064 90.736 80.064C93.68 80.064 95.9307 80.6933 97.488 81.952C99.0453 83.2107 99.824 84.9173 99.824 87.072C99.824 88.1173 99.6533 89.0667 99.312 89.92C98.992 90.752 98.5013 91.4773 97.84 92.096C97.2 92.6933 96.3787 93.1627 95.376 93.504C94.3947 93.824 93.2533 93.984 91.952 93.984H89.68V99.872ZM117.618 99.968C117.404 100.032 117.063 100.096 116.594 100.16C116.146 100.224 115.676 100.256 115.186 100.256C114.716 100.256 114.29 100.224 113.906 100.16C113.543 100.096 113.234 99.968 112.978 99.776C112.722 99.584 112.519 99.328 112.37 99.008C112.242 98.6667 112.178 98.2293 112.178 97.696V90.592C112.178 89.7173 111.954 89.1093 111.506 88.768C111.079 88.4053 110.546 88.224 109.906 88.224C109.479 88.224 109.074 88.2773 108.69 88.384C108.306 88.4907 107.996 88.6187 107.762 88.768V99.968C107.548 100.032 107.207 100.096 106.738 100.16C106.29 100.224 105.82 100.256 105.33 100.256C104.86 100.256 104.434 100.224 104.05 100.16C103.687 100.096 103.378 99.968 103.122 99.776C102.866 99.584 102.663 99.328 102.514 99.008C102.386 98.6667 102.322 98.2293 102.322 97.696V79.136C102.556 79.0933 102.898 79.04 103.346 78.976C103.815 78.8907 104.284 78.848 104.754 78.848C105.223 78.848 105.639 78.88 106.002 78.944C106.386 79.008 106.706 79.136 106.962 79.328C107.218 79.52 107.41 79.7867 107.538 80.128C107.687 80.448 107.762 80.8747 107.762 81.408V84.544C108.039 84.4373 108.455 84.32 109.01 84.192C109.586 84.0427 110.215 83.968 110.898 83.968C113.01 83.968 114.652 84.5013 115.826 85.568C117.02 86.6133 117.618 88.1813 117.618 90.272V99.968ZM137.073 92.224C137.073 93.5467 136.87 94.7307 136.465 95.776C136.059 96.8 135.483 97.664 134.737 98.368C134.011 99.072 133.137 99.6053 132.113 99.968C131.089 100.331 129.947 100.512 128.689 100.512C127.43 100.512 126.289 100.32 125.265 99.936C124.241 99.552 123.355 99.008 122.609 98.304C121.883 97.5787 121.318 96.704 120.913 95.68C120.507 94.656 120.305 93.504 120.305 92.224C120.305 90.9653 120.507 89.824 120.913 88.8C121.318 87.776 121.883 86.912 122.609 86.208C123.355 85.4827 124.241 84.928 125.265 84.544C126.289 84.16 127.43 83.968 128.689 83.968C129.947 83.968 131.089 84.1707 132.113 84.576C133.137 84.96 134.011 85.5147 134.737 86.24C135.483 86.944 136.059 87.808 136.465 88.832C136.87 89.856 137.073 90.9867 137.073 92.224ZM125.873 92.224C125.873 93.5253 126.118 94.528 126.609 95.232C127.121 95.9147 127.825 96.256 128.72 96.256C129.617 96.256 130.299 95.904 130.769 95.2C131.259 94.496 131.505 93.504 131.505 92.224C131.505 90.944 131.259 89.9627 130.769 89.28C130.278 88.576 129.585 88.224 128.689 88.224C127.793 88.224 127.099 88.576 126.609 89.28C126.118 89.9627 125.873 90.944 125.873 92.224ZM155.823 92.224C155.823 93.5467 155.62 94.7307 155.215 95.776C154.809 96.8 154.233 97.664 153.487 98.368C152.761 99.072 151.887 99.6053 150.863 99.968C149.839 100.331 148.697 100.512 147.439 100.512C146.18 100.512 145.039 100.32 144.015 99.936C142.991 99.552 142.105 99.008 141.359 98.304C140.633 97.5787 140.068 96.704 139.663 95.68C139.257 94.656 139.055 93.504 139.055 92.224C139.055 90.9653 139.257 89.824 139.663 88.8C140.068 87.776 140.633 86.912 141.359 86.208C142.105 85.4827 142.991 84.928 144.015 84.544C145.039 84.16 146.18 83.968 147.439 83.968C148.697 83.968 149.839 84.1707 150.863 84.576C151.887 84.96 152.761 85.5147 153.487 86.24C154.233 86.944 154.809 87.808 155.215 88.832C155.62 89.856 155.823 90.9867 155.823 92.224ZM144.623 92.224C144.623 93.5253 144.868 94.528 145.359 95.232C145.871 95.9147 146.575 96.256 147.47 96.256C148.367 96.256 149.049 95.904 149.519 95.2C150.009 94.496 150.255 93.504 150.255 92.224C150.255 90.944 150.009 89.9627 149.519 89.28C149.028 88.576 148.335 88.224 147.439 88.224C146.543 88.224 145.849 88.576 145.359 89.28C144.868 89.9627 144.623 90.944 144.623 92.224ZM163.917 94.656C163.917 95.2107 164.087 95.6053 164.429 95.84C164.791 96.0747 165.293 96.192 165.933 96.192C166.253 96.192 166.583 96.1707 166.925 96.128C167.266 96.064 167.565 95.9893 167.821 95.904C168.013 96.1387 168.173 96.4053 168.301 96.704C168.45 96.9813 168.525 97.3227 168.525 97.728C168.525 98.5387 168.215 99.2 167.597 99.712C166.999 100.224 165.933 100.48 164.397 100.48C162.519 100.48 161.069 100.053 160.045 99.2C159.042 98.3467 158.541 96.96 158.541 95.04V81.344C158.775 81.28 159.106 81.216 159.533 81.152C159.981 81.0667 160.45 81.024 160.941 81.024C161.879 81.024 162.605 81.1947 163.117 81.536C163.65 81.856 163.917 82.5493 163.917 83.616V85.664H168.109C168.237 85.8987 168.354 86.1973 168.461 86.56C168.589 86.9013 168.653 87.2853 168.653 87.712C168.653 88.4587 168.482 89.0027 168.141 89.344C167.821 89.664 167.383 89.824 166.829 89.824H163.917V94.656ZM187.198 92.224C187.198 93.5467 186.995 94.7307 186.59 95.776C186.184 96.8 185.608 97.664 184.862 98.368C184.136 99.072 183.262 99.6053 182.238 99.968C181.214 100.331 180.072 100.512 178.814 100.512C177.555 100.512 176.414 100.32 175.39 99.936C174.366 99.552 173.48 99.008 172.734 98.304C172.008 97.5787 171.443 96.704 171.038 95.68C170.632 94.656 170.43 93.504 170.43 92.224C170.43 90.9653 170.632 89.824 171.038 88.8C171.443 87.776 172.008 86.912 172.734 86.208C173.48 85.4827 174.366 84.928 175.39 84.544C176.414 84.16 177.555 83.968 178.814 83.968C180.072 83.968 181.214 84.1707 182.238 84.576C183.262 84.96 184.136 85.5147 184.862 86.24C185.608 86.944 186.184 87.808 186.59 88.832C186.995 89.856 187.198 90.9867 187.198 92.224ZM175.998 92.224C175.998 93.5253 176.243 94.528 176.734 95.232C177.246 95.9147 177.95 96.256 178.845 96.256C179.742 96.256 180.424 95.904 180.894 95.2C181.384 94.496 181.63 93.504 181.63 92.224C181.63 90.944 181.384 89.9627 180.894 89.28C180.403 88.576 179.71 88.224 178.814 88.224C177.918 88.224 177.224 88.576 176.734 89.28C176.243 89.9627 175.998 90.944 175.998 92.224ZM189.916 79.168C190.129 79.104 190.47 79.04 190.94 78.976C191.409 78.8907 191.889 78.848 192.38 78.848C192.849 78.848 193.265 78.88 193.628 78.944C194.012 79.008 194.332 79.136 194.588 79.328C194.844 79.52 195.036 79.7867 195.164 80.128C195.292 80.448 195.356 80.8747 195.356 81.408V84.544C195.889 84.3307 196.39 84.1813 196.86 84.096C197.35 84.0107 197.884 83.968 198.46 83.968C199.484 83.968 200.454 84.1493 201.372 84.512C202.289 84.8747 203.1 85.408 203.804 86.112C204.508 86.7947 205.062 87.648 205.468 88.672C205.873 89.696 206.076 90.88 206.076 92.224C206.076 93.6107 205.862 94.8267 205.436 95.872C205.03 96.896 204.454 97.7493 203.708 98.432C202.961 99.1147 202.044 99.6373 200.956 100C199.889 100.341 198.705 100.512 197.404 100.512C195.996 100.512 194.801 100.341 193.82 100C192.838 99.68 192.006 99.2747 191.324 98.784C190.385 98.1227 189.916 97.2693 189.916 96.224V79.168ZM197.404 96.224C198.385 96.224 199.142 95.8933 199.676 95.232C200.23 94.5493 200.508 93.5467 200.508 92.224C200.508 90.88 200.23 89.8773 199.676 89.216C199.121 88.5547 198.374 88.224 197.436 88.224C197.009 88.224 196.636 88.2667 196.316 88.352C196.017 88.4373 195.686 88.5653 195.324 88.736V95.712C195.558 95.8613 195.836 95.9893 196.156 96.096C196.497 96.1813 196.913 96.224 197.404 96.224ZM224.823 92.224C224.823 93.5467 224.62 94.7307 224.215 95.776C223.809 96.8 223.233 97.664 222.487 98.368C221.761 99.072 220.887 99.6053 219.863 99.968C218.839 100.331 217.697 100.512 216.439 100.512C215.18 100.512 214.039 100.32 213.015 99.936C211.991 99.552 211.105 99.008 210.359 98.304C209.633 97.5787 209.068 96.704 208.663 95.68C208.257 94.656 208.055 93.504 208.055 92.224C208.055 90.9653 208.257 89.824 208.663 88.8C209.068 87.776 209.633 86.912 210.359 86.208C211.105 85.4827 211.991 84.928 213.015 84.544C214.039 84.16 215.18 83.968 216.439 83.968C217.697 83.968 218.839 84.1707 219.863 84.576C220.887 84.96 221.761 85.5147 222.487 86.24C223.233 86.944 223.809 87.808 224.215 88.832C224.62 89.856 224.823 90.9867 224.823 92.224ZM213.623 92.224C213.623 93.5253 213.868 94.528 214.359 95.232C214.871 95.9147 215.575 96.256 216.47 96.256C217.367 96.256 218.049 95.904 218.519 95.2C219.009 94.496 219.255 93.504 219.255 92.224C219.255 90.944 219.009 89.9627 218.519 89.28C218.028 88.576 217.335 88.224 216.439 88.224C215.543 88.224 214.849 88.576 214.359 89.28C213.868 89.9627 213.623 90.944 213.623 92.224ZM243.573 92.224C243.573 93.5467 243.37 94.7307 242.965 95.776C242.559 96.8 241.983 97.664 241.237 98.368C240.511 99.072 239.637 99.6053 238.613 99.968C237.589 100.331 236.447 100.512 235.189 100.512C233.93 100.512 232.789 100.32 231.765 99.936C230.741 99.552 229.855 99.008 229.109 98.304C228.383 97.5787 227.818 96.704 227.413 95.68C227.007 94.656 226.805 93.504 226.805 92.224C226.805 90.9653 227.007 89.824 227.413 88.8C227.818 87.776 228.383 86.912 229.109 86.208C229.855 85.4827 230.741 84.928 231.765 84.544C232.789 84.16 233.93 83.968 235.189 83.968C236.447 83.968 237.589 84.1707 238.613 84.576C239.637 84.96 240.511 85.5147 241.237 86.24C241.983 86.944 242.559 87.808 242.965 88.832C243.37 89.856 243.573 90.9867 243.573 92.224ZM232.373 92.224C232.373 93.5253 232.618 94.528 233.109 95.232C233.621 95.9147 234.325 96.256 235.22 96.256C236.117 96.256 236.799 95.904 237.269 95.2C237.759 94.496 238.005 93.504 238.005 92.224C238.005 90.944 237.759 89.9627 237.269 89.28C236.778 88.576 236.085 88.224 235.189 88.224C234.293 88.224 233.599 88.576 233.109 89.28C232.618 89.9627 232.373 90.944 232.373 92.224ZM251.667 94.656C251.667 95.2107 251.837 95.6053 252.179 95.84C252.541 96.0747 253.043 96.192 253.683 96.192C254.003 96.192 254.333 96.1707 254.675 96.128C255.016 96.064 255.315 95.9893 255.571 95.904C255.763 96.1387 255.923 96.4053 256.051 96.704C256.2 96.9813 256.275 97.3227 256.275 97.728C256.275 98.5387 255.965 99.2 255.347 99.712C254.749 100.224 253.683 100.48 252.147 100.48C250.269 100.48 248.819 100.053 247.795 99.2C246.792 98.3467 246.291 96.96 246.291 95.04V81.344C246.525 81.28 246.856 81.216 247.283 81.152C247.731 81.0667 248.2 81.024 248.691 81.024C249.629 81.024 250.355 81.1947 250.867 81.536C251.4 81.856 251.667 82.5493 251.667 83.616V85.664H255.859C255.987 85.8987 256.104 86.1973 256.211 86.56C256.339 86.9013 256.403 87.2853 256.403 87.712C256.403 88.4587 256.232 89.0027 255.891 89.344C255.571 89.664 255.133 89.824 254.579 89.824H251.667V94.656ZM274.399 99.968C274.186 100.032 273.844 100.096 273.375 100.16C272.927 100.224 272.458 100.256 271.967 100.256C271.498 100.256 271.071 100.224 270.687 100.16C270.324 100.096 270.015 99.968 269.759 99.776C269.503 99.584 269.3 99.328 269.151 99.008C269.023 98.6667 268.959 98.2293 268.959 97.696V90.592C268.959 89.7173 268.735 89.1093 268.287 88.768C267.86 88.4053 267.327 88.224 266.687 88.224C266.26 88.224 265.855 88.2773 265.471 88.384C265.087 88.4907 264.778 88.6187 264.543 88.768V99.968C264.33 100.032 263.988 100.096 263.519 100.16C263.071 100.224 262.602 100.256 262.111 100.256C261.642 100.256 261.215 100.224 260.831 100.16C260.468 100.096 260.159 99.968 259.903 99.776C259.647 99.584 259.444 99.328 259.295 99.008C259.167 98.6667 259.103 98.2293 259.103 97.696V79.136C259.338 79.0933 259.679 79.04 260.127 78.976C260.596 78.8907 261.066 78.848 261.535 78.848C262.004 78.848 262.42 78.88 262.783 78.944C263.167 79.008 263.487 79.136 263.743 79.328C263.999 79.52 264.191 79.7867 264.319 80.128C264.468 80.448 264.543 80.8747 264.543 81.408V84.544C264.82 84.4373 265.236 84.32 265.791 84.192C266.367 84.0427 266.996 83.968 267.679 83.968C269.791 83.968 271.434 84.5013 272.607 85.568C273.802 86.6133 274.399 88.1813 274.399 90.272V99.968Z" fill="white"/>
</g>
<defs>
<filter id="filter0_d_7_696" x="0.560059" y="17" width="358.205" height="61.152" filterUnits="userSpaceOnUse" color-interpolation-filters="sRGB">
<feFlood flood-opacity="0" result="BackgroundImageFix"/>
<feColorMatrix in="SourceAlpha" type="matrix" values="0 0 0 0 0 0 0 0 0 0 0 0 0 0 0 0 0 0 127 0" result="hardAlpha"/>
<feOffset/>
<feGaussianBlur stdDeviation="5"/>
<feComposite in2="hardAlpha" operator="out"/>
<feColorMatrix type="matrix" values="0 0 0 0 0 0 0 0 0 0 0 0 0 0 0 0 0 0 0.87 0"/>
<feBlend mode="normal" in2="BackgroundImageFix" result="effect1_dropShadow_7_696"/>
<feBlend mode="normal" in="SourceGraphic" in2="effect1_dropShadow_7_696" result="shape"/>
</filter>
<filter id="filter1_d_7_696" x="74.08" y="68.848" width="210.319" height="41.6639" filterUnits="userSpaceOnUse" color-interpolation-filters="sRGB">
<feFlood flood-opacity="0" result="BackgroundImageFix"/>
<feColorMatrix in="SourceAlpha" type="matrix" values="0 0 0 0 0 0 0 0 0 0 0 0 0 0 0 0 0 0 127 0" result="hardAlpha"/>
<feOffset/>
<feGaussianBlur stdDeviation="5"/>
<feComposite in2="hardAlpha" operator="out"/>
<feColorMatrix type="matrix" values="0 0 0 0 0 0 0 0 0 0 0 0 0 0 0 0 0 0 0.87 0"/>
<feBlend mode="normal" in2="BackgroundImageFix" result="effect1_dropShadow_7_696"/>
<feBlend mode="normal" in="SourceGraphic" in2="effect1_dropShadow_7_696" result="shape"/>
</filter>
</defs>
</svg>
