<svg width="1100" height="1600" viewBox="0 0 1100 1600" fill="none" xmlns="http://www.w3.org/2000/svg">
<g clip-path="url(#clip0_5_544)">
<rect width="1100" height="1600" rx="20" fill="black"/>
<path d="M40 14.9999C44.4183 14.9999 48 18.5817 48 22.9999L48 46.9999C48 51.4182 44.4183 54.9999 40 54.9999L16 54.9999C11.5817 54.9999 8 51.4182 8 46.9999L8 22.9999C8 18.5817 11.5817 14.9999 16 14.9999L40 14.9999Z" fill="white"/>
<path d="M40 99.9999C44.4183 99.9999 48 103.582 48 108L48 132C48 136.418 44.4183 140 40 140L16 140C11.5817 140 8 136.418 8 132L8 108C8 103.582 11.5817 99.9999 16 99.9999L40 99.9999Z" fill="white"/>
<path d="M40 185C44.4183 185 48 188.582 48 193L48 217C48 221.418 44.4183 225 40 225L16 225C11.5817 225 8 221.418 8 217L8 193C8 188.582 11.5817 185 16 185L40 185Z" fill="white"/>
<path d="M40 270C44.4183 270 48 273.582 48 278L48 302C48 306.418 44.4183 310 40 310L16 310C11.5817 310 8 306.418 8 302L8 278C8 273.582 11.5817 270 16 270L40 270Z" fill="white"/>
<path d="M40 355C44.4183 355 48 358.582 48 363L48 387C48 391.418 44.4183 395 40 395L16 395C11.5817 395 8 391.418 8 387L8 363C8 358.582 11.5817 355 16 355L40 355Z" fill="white"/>
<path d="M40 440C44.4183 440 48 443.582 48 448L48 472C48 476.418 44.4183 480 40 480L16 480C11.5817 480 8 476.418 8 472L8 448C8 443.582 11.5817 440 16 440L40 440Z" fill="white"/>
<path d="M40 525C44.4183 525 48 528.582 48 533L48 557C48 561.418 44.4183 565 40 565L16 565C11.5817 565 8 561.418 8 557L8 533C8 528.582 11.5817 525 16 525L40 525Z" fill="white"/>
<path d="M40 610C44.4183 610 48 613.582 48 618L48 642C48 646.418 44.4183 650 40 650L16 650C11.5817 650 8 646.418 8 642L8 618C8 613.582 11.5817 610 16 610L40 610Z" fill="white"/>
<path d="M40 695C44.4183 695 48 698.582 48 703L48 727C48 731.418 44.4183 735 40 735L16 735C11.5817 735 8 731.418 8 727L8 703C8 698.582 11.5817 695 16 695L40 695Z" fill="white"/>
<path d="M40 780C44.4183 780 48 783.582 48 788L48 812C48 816.418 44.4183 820 40 820L16 820C11.5817 820 8 816.418 8 812L8 788C8 783.582 11.5817 780 16 780L40 780Z" fill="white"/>
<path d="M40 865C44.4183 865 48 868.582 48 873L48 897C48 901.418 44.4183 905 40 905L16 905C11.5817 905 8 901.418 8 897L8 873C8 868.582 11.5817 865 16 865L40 865Z" fill="white"/>
<path d="M40 950C44.4183 950 48 953.582 48 958L48 982C48 986.418 44.4183 990 40 990L16 990C11.5817 990 8 986.418 8 982L8 958C8 953.582 11.5817 950 16 950L40 950Z" fill="white"/>
<path d="M40 1035C44.4183 1035 48 1038.58 48 1043L48 1067C48 1071.42 44.4183 1075 40 1075L16 1075C11.5817 1075 8 1071.42 8 1067L8 1043C8 1038.58 11.5817 1035 16 1035L40 1035Z" fill="white"/>
<path d="M40 1120C44.4183 1120 48 1123.58 48 1128L48 1152C48 1156.42 44.4183 1160 40 1160L16 1160C11.5817 1160 8 1156.42 8 1152L8 1128C8 1123.58 11.5817 1120 16 1120L40 1120Z" fill="white"/>
<path d="M40 1205C44.4183 1205 48 1208.58 48 1213L48 1237C48 1241.42 44.4183 1245 40 1245L16 1245C11.5817 1245 8 1241.42 8 1237L8 1213C8 1208.58 11.5817 1205 16 1205L40 1205Z" fill="white"/>
<path d="M40 1290C44.4183 1290 48 1293.58 48 1298L48 1322C48 1326.42 44.4183 1330 40 1330L16 1330C11.5817 1330 8 1326.42 8 1322L8 1298C8 1293.58 11.5817 1290 16 1290L40 1290Z" fill="white"/>
<path d="M40 1375C44.4183 1375 48 1378.58 48 1383L48 1407C48 1411.42 44.4183 1415 40 1415L16 1415C11.5817 1415 8 1411.42 8 1407L8 1383C8 1378.58 11.5817 1375 16 1375L40 1375Z" fill="white"/>
<path d="M40 1460C44.4183 1460 48 1463.58 48 1468L48 1492C48 1496.42 44.4183 1500 40 1500L16 1500C11.5817 1500 8 1496.42 8 1492L8 1468C8 1463.58 11.5817 1460 16 1460L40 1460Z" fill="white"/>
<path d="M40 1545C44.4183 1545 48 1548.58 48 1553L48 1577C48 1581.42 44.4183 1585 40 1585L16 1585C11.5817 1585 8 1581.42 8 1577L8 1553C8 1548.58 11.5817 1545 16 1545L40 1545Z" fill="white"/>
<path d="M1084 14.9999C1088.42 14.9999 1092 18.5817 1092 22.9999L1092 46.9999C1092 51.4182 1088.42 54.9999 1084 54.9999L1060 54.9999C1055.58 54.9999 1052 51.4182 1052 46.9999L1052 22.9999C1052 18.5817 1055.58 14.9999 1060 14.9999L1084 14.9999Z" fill="white"/>
<path d="M1084 99.9999C1088.42 99.9999 1092 103.582 1092 108L1092 132C1092 136.418 1088.42 140 1084 140L1060 140C1055.58 140 1052 136.418 1052 132L1052 108C1052 103.582 1055.58 99.9999 1060 99.9999L1084 99.9999Z" fill="white"/>
<path d="M1084 185C1088.42 185 1092 188.582 1092 193L1092 217C1092 221.418 1088.42 225 1084 225L1060 225C1055.58 225 1052 221.418 1052 217L1052 193C1052 188.582 1055.58 185 1060 185L1084 185Z" fill="white"/>
<path d="M1084 270C1088.42 270 1092 273.582 1092 278L1092 302C1092 306.418 1088.42 310 1084 310L1060 310C1055.58 310 1052 306.418 1052 302L1052 278C1052 273.582 1055.58 270 1060 270L1084 270Z" fill="white"/>
<path d="M1084 355C1088.42 355 1092 358.582 1092 363L1092 387C1092 391.418 1088.42 395 1084 395L1060 395C1055.58 395 1052 391.418 1052 387L1052 363C1052 358.582 1055.58 355 1060 355L1084 355Z" fill="white"/>
<path d="M1084 440C1088.42 440 1092 443.582 1092 448L1092 472C1092 476.418 1088.42 480 1084 480L1060 480C1055.58 480 1052 476.418 1052 472L1052 448C1052 443.582 1055.58 440 1060 440L1084 440Z" fill="white"/>
<path d="M1084 525C1088.42 525 1092 528.582 1092 533L1092 557C1092 561.418 1088.42 565 1084 565L1060 565C1055.58 565 1052 561.418 1052 557L1052 533C1052 528.582 1055.58 525 1060 525L1084 525Z" fill="white"/>
<path d="M1084 610C1088.42 610 1092 613.582 1092 618L1092 642C1092 646.418 1088.42 650 1084 650L1060 650C1055.58 650 1052 646.418 1052 642L1052 618C1052 613.582 1055.58 610 1060 610L1084 610Z" fill="white"/>
<path d="M1084 695C1088.42 695 1092 698.582 1092 703L1092 727C1092 731.418 1088.42 735 1084 735L1060 735C1055.58 735 1052 731.418 1052 727L1052 703C1052 698.582 1055.58 695 1060 695L1084 695Z" fill="white"/>
<path d="M1084 780C1088.42 780 1092 783.582 1092 788L1092 812C1092 816.418 1088.42 820 1084 820L1060 820C1055.58 820 1052 816.418 1052 812L1052 788C1052 783.582 1055.58 780 1060 780L1084 780Z" fill="white"/>
<path d="M1084 865C1088.42 865 1092 868.582 1092 873L1092 897C1092 901.418 1088.42 905 1084 905L1060 905C1055.58 905 1052 901.418 1052 897L1052 873C1052 868.582 1055.58 865 1060 865L1084 865Z" fill="white"/>
<path d="M1084 950C1088.42 950 1092 953.582 1092 958L1092 982C1092 986.418 1088.42 990 1084 990L1060 990C1055.58 990 1052 986.418 1052 982L1052 958C1052 953.582 1055.58 950 1060 950L1084 950Z" fill="white"/>
<path d="M1084 1035C1088.42 1035 1092 1038.58 1092 1043L1092 1067C1092 1071.42 1088.42 1075 1084 1075L1060 1075C1055.58 1075 1052 1071.42 1052 1067L1052 1043C1052 1038.58 1055.58 1035 1060 1035L1084 1035Z" fill="white"/>
<path d="M1084 1120C1088.42 1120 1092 1123.58 1092 1128L1092 1152C1092 1156.42 1088.42 1160 1084 1160L1060 1160C1055.58 1160 1052 1156.42 1052 1152L1052 1128C1052 1123.58 1055.58 1120 1060 1120L1084 1120Z" fill="white"/>
<path d="M1084 1205C1088.42 1205 1092 1208.58 1092 1213L1092 1237C1092 1241.42 1088.42 1245 1084 1245L1060 1245C1055.58 1245 1052 1241.42 1052 1237L1052 1213C1052 1208.58 1055.58 1205 1060 1205L1084 1205Z" fill="white"/>
<path d="M1084 1290C1088.42 1290 1092 1293.58 1092 1298L1092 1322C1092 1326.42 1088.42 1330 1084 1330L1060 1330C1055.58 1330 1052 1326.42 1052 1322L1052 1298C1052 1293.58 1055.58 1290 1060 1290L1084 1290Z" fill="white"/>
<path d="M1084 1375C1088.42 1375 1092 1378.58 1092 1383L1092 1407C1092 1411.42 1088.42 1415 1084 1415L1060 1415C1055.58 1415 1052 1411.42 1052 1407L1052 1383C1052 1378.58 1055.58 1375 1060 1375L1084 1375Z" fill="white"/>
<path d="M1084 1460C1088.42 1460 1092 1463.58 1092 1468L1092 1492C1092 1496.42 1088.42 1500 1084 1500L1060 1500C1055.58 1500 1052 1496.42 1052 1492L1052 1468C1052 1463.58 1055.58 1460 1060 1460L1084 1460Z" fill="white"/>
<path d="M1084 1545C1088.42 1545 1092 1548.58 1092 1553L1092 1577C1092 1581.42 1088.42 1585 1084 1585L1060 1585C1055.58 1585 1052 1581.42 1052 1577L1052 1553C1052 1548.58 1055.58 1545 1060 1545L1084 1545Z" fill="white"/>
<g clip-path="url(#clip1_5_544)">
<mask id="mask0_5_544" style="mask-type:luminance" maskUnits="userSpaceOnUse" x="100" y="1340" width="139" height="149">
<path d="M238.404 1376.32L142.709 1340L100 1452.53L195.695 1488.85L238.404 1376.32Z" fill="white"/>
</mask>
<g mask="url(#mask0_5_544)">
<path d="M147.847 1470.69C166.693 1416.86 166.063 1415.11 121.355 1396.26C167.303 1411.84 168.934 1410.94 190.557 1358.16C171.711 1411.99 172.341 1413.74 217.05 1432.58C171.098 1417.02 169.477 1417.9 147.847 1470.69Z" fill="#F3F3F3"/>
</g>
</g>
<g clip-path="url(#clip2_5_544)">
<mask id="mask1_5_544" style="mask-type:luminance" maskUnits="userSpaceOnUse" x="897" y="1451" width="104" height="111">
<path d="M1000.42 1477.88L929.606 1451L898 1534.28L968.818 1561.15L1000.42 1477.88Z" fill="white"/>
</mask>
<g mask="url(#mask1_5_544)">
<path d="M933.409 1547.72C947.355 1507.88 946.889 1506.58 913.803 1492.64C947.806 1504.16 949.013 1503.5 965.015 1464.44C951.069 1504.28 951.535 1505.57 984.621 1519.52C950.615 1508 949.416 1508.65 933.409 1547.72Z" fill="#F3F3F3"/>
</g>
</g>
<g clip-path="url(#clip3_5_544)">
<mask id="mask2_5_544" style="mask-type:luminance" maskUnits="userSpaceOnUse" x="499" y="-27" width="103" height="111">
<path d="M601.424 -0.121781L530.607 -27L499 56.276L569.818 83.1542L601.424 -0.121781Z" fill="white"/>
</mask>
<g mask="url(#mask2_5_544)">
<path d="M534.409 69.7151C548.356 29.879 547.889 28.5816 514.803 14.638C548.807 26.1645 550.014 25.4951 566.016 -13.5609C552.069 26.2752 552.535 27.5727 585.621 41.5162C551.616 29.996 550.416 30.6471 534.409 69.7151Z" fill="#F3F3F3"/>
</g>
</g>
<g clip-path="url(#clip4_5_544)">
<mask id="mask3_5_544" style="mask-type:luminance" maskUnits="userSpaceOnUse" x="496" y="1262" width="167" height="167">
<path d="M662.414 1340.39L576.054 1262L496 1350.2L582.36 1428.58L662.414 1340.39Z" fill="white"/>
</mask>
<g mask="url(#mask3_5_544)">
<path d="M619.234 1301.19L583.702 1343.13L638.043 1341.82L583.845 1346.92L622.387 1384.48L581.271 1349.75L581.437 1404.19L577.489 1349.97L539.18 1389.39L574.713 1347.45L520.371 1348.76L574.569 1343.67L536.027 1306.1L577.143 1340.83L576.977 1286.4L580.925 1340.61L619.234 1301.19Z" fill="#F3F3F3"/>
</g>
</g>
</g>
<defs>
<clipPath id="clip0_5_544">
<rect width="1100" height="1600" rx="20" fill="white"/>
</clipPath>
<clipPath id="clip1_5_544">
<rect width="102.356" height="120.362" fill="white" transform="translate(142.709 1340) rotate(20.7837)"/>
</clipPath>
<clipPath id="clip2_5_544">
<rect width="75.747" height="89.0723" fill="white" transform="translate(929.606 1451) rotate(20.7837)"/>
</clipPath>
<clipPath id="clip3_5_544">
<rect width="75.747" height="89.0723" fill="white" transform="translate(530.607 -27) rotate(20.7837)"/>
</clipPath>
<clipPath id="clip4_5_544">
<rect width="116.63" height="119.111" fill="white" transform="translate(576.054 1262) rotate(42.2289)"/>
</clipPath>
</defs>
</svg>
