<svg width="1100" height="1600" viewBox="0 0 1100 1600" fill="none" xmlns="http://www.w3.org/2000/svg">
<g clip-path="url(#clip0_7_3)">
<rect width="1100" height="1600" rx="20" fill="white"/>
<path d="M1101 1680L1101 1460L881 1460L881 1680L1101 1680Z" fill="white"/>
<path d="M1101 1460L1101 1239L881 1239L881 1460L1101 1460Z" fill="#3C436D"/>
<path d="M1101 1239L1101 1018L881 1018L881 1239L1101 1239Z" fill="white"/>
<path d="M1101 1018L1101 798L881 798L881 1018L1101 1018Z" fill="#3C436D"/>
<path d="M1101 798L1101 578L881 578L881 798L1101 798Z" fill="white"/>
<path d="M1101 578L1101 358L881 358L881 578L1101 578Z" fill="#3C436D"/>
<path d="M1101 358L1101 138L881 138L881 358L1101 358Z" fill="white"/>
<path d="M1101 138L1101 -81.9999L881 -81.9999L881 138L1101 138Z" fill="#3C436D"/>
<path d="M880.5 -81.9999L880.5 138L660.5 138L660.5 -81.9999L880.5 -81.9999Z" fill="white"/>
<path d="M880.5 138L880.5 358L660.5 358L660.5 138L880.5 138Z" fill="#3C436D"/>
<path d="M881 358L881 578L660 578L660 358L881 358Z" fill="white"/>
<path d="M880.5 578L880.5 798L660.5 798L660.5 578L880.5 578Z" fill="#3C436D"/>
<path d="M880.5 798L880.5 1018L660.5 1018L660.5 798L880.5 798Z" fill="white"/>
<path d="M881 1018L881 1238L660 1238L660 1018L881 1018Z" fill="#3C436D"/>
<path d="M880.5 1238L880.5 1458L660.5 1458L660.5 1238L880.5 1238Z" fill="white"/>
<path d="M880.5 1458L880.5 1678L660.5 1678L660.5 1458L880.5 1458Z" fill="#3C436D"/>
<path d="M660 1680L660 1460L440 1460L440 1680L660 1680Z" fill="white"/>
<path d="M660 1460L660 1240L440 1240L440 1460L660 1460Z" fill="#3C436D"/>
<path d="M660 1240L660 1020L440 1020L440 1240L660 1240Z" fill="white"/>
<path d="M660 1020L660 800L440 800L440 1020L660 1020Z" fill="#3C436D"/>
<path d="M660 800L660 580L440 580L440 800L660 800Z" fill="white"/>
<path d="M660 580L660 360L440 360L440 580L660 580Z" fill="#3C436D"/>
<path d="M660 360L660 140L440 140L440 360L660 360Z" fill="white"/>
<path d="M660 140L660 -79.9999L440 -79.9999L440 140L660 140Z" fill="#3C436D"/>
<path d="M440 -81.9999L440 138L219 138L219 -81.9999L440 -81.9999Z" fill="white"/>
<path d="M439.5 138L439.5 358L219.5 358L219.5 138L439.5 138Z" fill="#3C436D"/>
<path d="M439.5 358L439.5 578L219.5 578L219.5 358L439.5 358Z" fill="white"/>
<path d="M440 578L440 798L219 798L219 578L440 578Z" fill="#3C436D"/>
<path d="M440 798L440 1018L219 1018L219 798L440 798Z" fill="white"/>
<path d="M440 1018L440 1238L219 1238L219 1018L440 1018Z" fill="#3C436D"/>
<path d="M440 1238L440 1458L219 1458L219 1238L440 1238Z" fill="white"/>
<path d="M440 1458L440 1678L219 1678L219 1458L440 1458Z" fill="#3C436D"/>
<path d="M219 1680L219 1460L-1 1460L-1.00001 1680L219 1680Z" fill="white"/>
<path d="M219 1460L219 1240L-1 1240L-1.00001 1460L219 1460Z" fill="#3C436D"/>
<path d="M219 1240L219 1020L-1 1020L-1.00001 1240L219 1240Z" fill="white"/>
<path d="M219 1020L219 800L-1 800L-1.00001 1020L219 1020Z" fill="#3C436D"/>
<path d="M219 800L219 580L-1 580L-1.00001 800L219 800Z" fill="white"/>
<path d="M219 580L219 360L-1 360L-1.00001 580L219 580Z" fill="#3C436D"/>
<path d="M219 360L219 140L-1 140L-1.00001 360L219 360Z" fill="white"/>
<path d="M219 140L219 -79.9999L-1 -79.9999L-1.00001 140L219 140Z" fill="#3C436D"/>
</g>
<defs>
<clipPath id="clip0_7_3">
<rect width="1100" height="1600" rx="20" fill="white"/>
</clipPath>
</defs>
</svg>
