<svg width="1100" height="1600" viewBox="0 0 1100 1600" fill="none" xmlns="http://www.w3.org/2000/svg">
<g clip-path="url(#clip0_5_544)">
<rect width="1100" height="1600" rx="20" fill="black"/>
<path d="M50 34.9999C61.0457 34.9999 70 43.9542 70 54.9999L70 74.9999C70 86.0456 61.0457 94.9999 50 94.9999L30 94.9999C18.9543 94.9999 10 86.0456 10 74.9999L10 54.9999C10 43.9542 18.9543 34.9999 30 34.9999L50 34.9999Z" fill="white"/>
<path d="M50 140C61.0457 140 70 148.954 70 160L70 180C70 191.046 61.0457 200 50 200L30 200C18.9543 200 10 191.046 10 180L10 160C10 148.954 18.9543 140 30 140L50 140Z" fill="white"/>
<path d="M50 245C61.0457 245 70 253.954 70 265L70 285C70 296.046 61.0457 305 50 305L30 305C18.9543 305 10 296.046 10 285L10 265C10 253.954 18.9543 245 30 245L50 245Z" fill="white"/>
<path d="M50 350C61.0457 350 70 358.954 70 370L70 390C70 401.046 61.0457 410 50 410L30 410C18.9543 410 10 401.046 10 390L10 370C10 358.954 18.9543 350 30 350L50 350Z" fill="white"/>
<path d="M50 455C61.0457 455 70 463.954 70 475L70 495C70 506.046 61.0457 515 50 515L30 515C18.9543 515 10 506.046 10 495L10 475C10 463.954 18.9543 455 30 455L50 455Z" fill="white"/>
<path d="M50 560C61.0457 560 70 568.954 70 580L70 600C70 611.046 61.0457 620 50 620L30 620C18.9543 620 10 611.046 10 600L10 580C10 568.954 18.9543 560 30 560L50 560Z" fill="white"/>
<path d="M50 665C61.0457 665 70 673.954 70 685L70 705C70 716.046 61.0457 725 50 725L30 725C18.9543 725 10 716.046 10 705L10 685C10 673.954 18.9543 665 30 665L50 665Z" fill="white"/>
<path d="M50 770C61.0457 770 70 778.954 70 790L70 810C70 821.046 61.0457 830 50 830L30 830C18.9543 830 10 821.046 10 810L10 790C10 778.954 18.9543 770 30 770L50 770Z" fill="white"/>
<path d="M50 875C61.0457 875 70 883.954 70 895L70 915C70 926.046 61.0457 935 50 935L30 935C18.9543 935 10 926.046 10 915L10 895C10 883.954 18.9543 875 30 875L50 875Z" fill="white"/>
<path d="M50 980C61.0457 980 70 988.954 70 1000L70 1020C70 1031.05 61.0457 1040 50 1040L30 1040C18.9543 1040 10 1031.05 10 1020L10 1000C10 988.954 18.9543 980 30 980L50 980Z" fill="white"/>
<path d="M50 1085C61.0457 1085 70 1093.95 70 1105L70 1125C70 1136.05 61.0457 1145 50 1145L30 1145C18.9543 1145 10 1136.05 10 1125L10 1105C10 1093.95 18.9543 1085 30 1085L50 1085Z" fill="white"/>
<path d="M50 1190C61.0457 1190 70 1198.95 70 1210L70 1230C70 1241.05 61.0457 1250 50 1250L30 1250C18.9543 1250 10 1241.05 10 1230L10 1210C10 1198.95 18.9543 1190 30 1190L50 1190Z" fill="white"/>
<path d="M50 1295C61.0457 1295 70 1303.95 70 1315L70 1335C70 1346.05 61.0457 1355 50 1355L30 1355C18.9543 1355 10 1346.05 10 1335L10 1315C10 1303.95 18.9543 1295 30 1295L50 1295Z" fill="white"/>
<path d="M50 1400C61.0457 1400 70 1408.95 70 1420L70 1440C70 1451.05 61.0457 1460 50 1460L30 1460C18.9543 1460 10 1451.05 10 1440L10 1420C10 1408.95 18.9543 1400 30 1400L50 1400Z" fill="white"/>
<path d="M50 1505C61.0457 1505 70 1513.95 70 1525L70 1545C70 1556.05 61.0457 1565 50 1565L30 1565C18.9543 1565 10 1556.05 10 1545L10 1525C10 1513.95 18.9543 1505 30 1505L50 1505Z" fill="white"/>
<path d="M1070 34.9999C1081.05 34.9999 1090 43.9542 1090 54.9999L1090 74.9999C1090 86.0456 1081.05 94.9999 1070 94.9999L1050 94.9999C1038.95 94.9999 1030 86.0456 1030 74.9999L1030 54.9999C1030 43.9542 1038.95 34.9999 1050 34.9999L1070 34.9999Z" fill="white"/>
<path d="M1070 140C1081.05 140 1090 148.954 1090 160L1090 180C1090 191.046 1081.05 200 1070 200L1050 200C1038.95 200 1030 191.046 1030 180L1030 160C1030 148.954 1038.95 140 1050 140L1070 140Z" fill="white"/>
<path d="M1070 245C1081.05 245 1090 253.954 1090 265L1090 285C1090 296.046 1081.05 305 1070 305L1050 305C1038.95 305 1030 296.046 1030 285L1030 265C1030 253.954 1038.95 245 1050 245L1070 245Z" fill="white"/>
<path d="M1070 350C1081.05 350 1090 358.954 1090 370L1090 390C1090 401.046 1081.05 410 1070 410L1050 410C1038.95 410 1030 401.046 1030 390L1030 370C1030 358.954 1038.95 350 1050 350L1070 350Z" fill="white"/>
<path d="M1070 455C1081.05 455 1090 463.954 1090 475L1090 495C1090 506.046 1081.05 515 1070 515L1050 515C1038.95 515 1030 506.046 1030 495L1030 475C1030 463.954 1038.95 455 1050 455L1070 455Z" fill="white"/>
<path d="M1070 560C1081.05 560 1090 568.954 1090 580L1090 600C1090 611.046 1081.05 620 1070 620L1050 620C1038.95 620 1030 611.046 1030 600L1030 580C1030 568.954 1038.95 560 1050 560L1070 560Z" fill="white"/>
<path d="M1070 665C1081.05 665 1090 673.954 1090 685L1090 705C1090 716.046 1081.05 725 1070 725L1050 725C1038.95 725 1030 716.046 1030 705L1030 685C1030 673.954 1038.95 665 1050 665L1070 665Z" fill="white"/>
<path d="M1070 770C1081.05 770 1090 778.954 1090 790L1090 810C1090 821.046 1081.05 830 1070 830L1050 830C1038.95 830 1030 821.046 1030 810L1030 790C1030 778.954 1038.95 770 1050 770L1070 770Z" fill="white"/>
<path d="M1070 875C1081.05 875 1090 883.954 1090 895L1090 915C1090 926.046 1081.05 935 1070 935L1050 935C1038.95 935 1030 926.046 1030 915L1030 895C1030 883.954 1038.95 875 1050 875L1070 875Z" fill="white"/>
<path d="M1070 980C1081.05 980 1090 988.954 1090 1000L1090 1020C1090 1031.05 1081.05 1040 1070 1040L1050 1040C1038.95 1040 1030 1031.05 1030 1020L1030 1000C1030 988.954 1038.95 980 1050 980L1070 980Z" fill="white"/>
<path d="M1070 1085C1081.05 1085 1090 1093.95 1090 1105L1090 1125C1090 1136.05 1081.05 1145 1070 1145L1050 1145C1038.95 1145 1030 1136.05 1030 1125L1030 1105C1030 1093.95 1038.95 1085 1050 1085L1070 1085Z" fill="white"/>
<path d="M1070 1190C1081.05 1190 1090 1198.95 1090 1210L1090 1230C1090 1241.05 1081.05 1250 1070 1250L1050 1250C1038.95 1250 1030 1241.05 1030 1230L1030 1210C1030 1198.95 1038.95 1190 1050 1190L1070 1190Z" fill="white"/>
<path d="M1070 1295C1081.05 1295 1090 1303.95 1090 1315L1090 1335C1090 1346.05 1081.05 1355 1070 1355L1050 1355C1038.95 1355 1030 1346.05 1030 1335L1030 1315C1030 1303.95 1038.95 1295 1050 1295L1070 1295Z" fill="white"/>
<path d="M1070 1400C1081.05 1400 1090 1408.95 1090 1420L1090 1440C1090 1451.05 1081.05 1460 1070 1460L1050 1460C1038.95 1460 1030 1451.05 1030 1440L1030 1420C1030 1408.95 1038.95 1400 1050 1400L1070 1400Z" fill="white"/>
<path d="M1070 1505C1081.05 1505 1090 1513.95 1090 1525L1090 1545C1090 1556.05 1081.05 1565 1070 1565L1050 1565C1038.95 1565 1030 1556.05 1030 1545L1030 1525C1030 1513.95 1038.95 1505 1050 1505L1070 1505Z" fill="white"/>
<g clip-path="url(#clip1_5_544)">
<mask id="mask0_5_544" style="mask-type:luminance" maskUnits="userSpaceOnUse" x="100" y="1340" width="139" height="149">
<path d="M238.404 1376.32L142.709 1340L100 1452.53L195.695 1488.85L238.404 1376.32Z" fill="white"/>
</mask>
<g mask="url(#mask0_5_544)">
<path d="M147.847 1470.69C166.693 1416.86 166.063 1415.11 121.355 1396.26C167.303 1411.84 168.934 1410.94 190.557 1358.16C171.711 1411.99 172.341 1413.74 217.05 1432.58C171.098 1417.02 169.477 1417.9 147.847 1470.69Z" fill="#F3F3F3"/>
</g>
</g>
<g clip-path="url(#clip2_5_544)">
<mask id="mask1_5_544" style="mask-type:luminance" maskUnits="userSpaceOnUse" x="897" y="1451" width="104" height="111">
<path d="M1000.42 1477.88L929.606 1451L898 1534.28L968.818 1561.15L1000.42 1477.88Z" fill="white"/>
</mask>
<g mask="url(#mask1_5_544)">
<path d="M933.409 1547.72C947.355 1507.88 946.889 1506.58 913.803 1492.64C947.806 1504.16 949.013 1503.5 965.015 1464.44C951.069 1504.28 951.535 1505.57 984.621 1519.52C950.615 1508 949.416 1508.65 933.409 1547.72Z" fill="#F3F3F3"/>
</g>
</g>
<g clip-path="url(#clip3_5_544)">
<mask id="mask2_5_544" style="mask-type:luminance" maskUnits="userSpaceOnUse" x="499" y="-27" width="103" height="111">
<path d="M601.424 -0.121781L530.607 -27L499 56.276L569.818 83.1542L601.424 -0.121781Z" fill="white"/>
</mask>
<g mask="url(#mask2_5_544)">
<path d="M534.409 69.7151C548.356 29.879 547.889 28.5816 514.803 14.638C548.807 26.1645 550.014 25.4951 566.016 -13.5609C552.069 26.2752 552.535 27.5727 585.621 41.5162C551.616 29.996 550.416 30.6471 534.409 69.7151Z" fill="#F3F3F3"/>
</g>
</g>
<g clip-path="url(#clip4_5_544)">
<mask id="mask3_5_544" style="mask-type:luminance" maskUnits="userSpaceOnUse" x="496" y="1262" width="167" height="167">
<path d="M662.414 1340.39L576.054 1262L496 1350.2L582.36 1428.58L662.414 1340.39Z" fill="white"/>
</mask>
<g mask="url(#mask3_5_544)">
<path d="M619.234 1301.19L583.702 1343.13L638.043 1341.82L583.845 1346.92L622.387 1384.48L581.271 1349.75L581.437 1404.19L577.489 1349.97L539.18 1389.39L574.713 1347.45L520.371 1348.76L574.569 1343.67L536.027 1306.1L577.143 1340.83L576.977 1286.4L580.925 1340.61L619.234 1301.19Z" fill="#F3F3F3"/>
</g>
</g>
</g>
<defs>
<clipPath id="clip0_5_544">
<rect width="1100" height="1600" rx="20" fill="white"/>
</clipPath>
<clipPath id="clip1_5_544">
<rect width="102.356" height="120.362" fill="white" transform="translate(142.709 1340) rotate(20.7837)"/>
</clipPath>
<clipPath id="clip2_5_544">
<rect width="75.747" height="89.0723" fill="white" transform="translate(929.606 1451) rotate(20.7837)"/>
</clipPath>
<clipPath id="clip3_5_544">
<rect width="75.747" height="89.0723" fill="white" transform="translate(530.607 -27) rotate(20.7837)"/>
</clipPath>
<clipPath id="clip4_5_544">
<rect width="116.63" height="119.111" fill="white" transform="translate(576.054 1262) rotate(42.2289)"/>
</clipPath>
</defs>
</svg>
