<svg width="797" height="1600" viewBox="0 0 797 1600" fill="none" xmlns="http://www.w3.org/2000/svg">
<g clip-path="url(#clip0_7_428)">
<rect width="797" height="1600" rx="20" fill="black"/>
<g clip-path="url(#clip1_7_428)">
<mask id="mask0_7_428" style="mask-type:luminance" maskUnits="userSpaceOnUse" x="100" y="1340" width="139" height="149">
<path d="M238.404 1376.32L142.709 1340L100 1452.53L195.695 1488.85L238.404 1376.32Z" fill="white"/>
</mask>
<g mask="url(#mask0_7_428)">
<path d="M147.847 1470.69C166.693 1416.86 166.063 1415.11 121.355 1396.26C167.303 1411.84 168.934 1410.94 190.557 1358.16C171.711 1411.99 172.341 1413.74 217.05 1432.58C171.098 1417.02 169.477 1417.9 147.847 1470.69Z" fill="#F3F3F3"/>
</g>
</g>
<g clip-path="url(#clip2_7_428)">
<mask id="mask1_7_428" style="mask-type:luminance" maskUnits="userSpaceOnUse" x="611" y="1481" width="91" height="97">
<path d="M701.003 1504.62L638.773 1481L611 1554.18L673.229 1577.79L701.003 1504.62Z" fill="white"/>
</mask>
<g mask="url(#mask1_7_428)">
<path d="M642.115 1565.99C654.37 1530.98 653.96 1529.84 624.887 1517.59C654.766 1527.72 655.827 1527.13 669.888 1492.81C657.633 1527.81 658.043 1528.95 687.116 1541.21C657.235 1531.08 656.18 1531.66 642.115 1565.99Z" fill="#F3F3F3"/>
</g>
</g>
<g clip-path="url(#clip3_7_428)">
<mask id="mask2_7_428" style="mask-type:luminance" maskUnits="userSpaceOnUse" x="499" y="-27" width="103" height="111">
<path d="M601.424 -0.121781L530.607 -27L499 56.276L569.818 83.1542L601.424 -0.121781Z" fill="white"/>
</mask>
<g mask="url(#mask2_7_428)">
<path d="M534.409 69.7151C548.356 29.879 547.889 28.5816 514.803 14.638C548.807 26.1645 550.014 25.4951 566.016 -13.5609C552.069 26.2752 552.535 27.5727 585.621 41.5162C551.616 29.996 550.416 30.6471 534.409 69.7151Z" fill="#F3F3F3"/>
</g>
</g>
<g clip-path="url(#clip4_7_428)">
<mask id="mask3_7_428" style="mask-type:luminance" maskUnits="userSpaceOnUse" x="596" y="1284" width="121" height="167">
<path d="M716.575 1362.39L654.003 1284L596 1372.2L658.572 1450.58L716.575 1362.39Z" fill="white"/>
</mask>
<g mask="url(#mask3_7_428)">
<path d="M685.289 1323.19L659.544 1365.13L698.917 1363.82L659.648 1368.92L687.573 1406.48L657.783 1371.75L657.903 1426.19L655.042 1371.97L627.286 1411.39L653.031 1369.45L613.658 1370.76L652.927 1365.67L625.001 1328.1L654.792 1362.83L654.672 1308.4L657.532 1362.61L685.289 1323.19Z" fill="#F3F3F3"/>
</g>
</g>
<path d="M40 18C44.4183 18 48 21.5817 48 26L48 50C48 54.4183 44.4183 58 40 58L16 58C11.5817 58 8 54.4183 8 50L8 26C8 21.5817 11.5817 18 16 18L40 18Z" fill="white"/>
<path d="M40 103C44.4183 103 48 106.582 48 111L48 135C48 139.418 44.4183 143 40 143L16 143C11.5817 143 8 139.418 8 135L8 111C8 106.582 11.5817 103 16 103L40 103Z" fill="white"/>
<path d="M40 188C44.4183 188 48 191.582 48 196L48 220C48 224.418 44.4183 228 40 228L16 228C11.5817 228 8 224.418 8 220L8 196C8 191.582 11.5817 188 16 188L40 188Z" fill="white"/>
<path d="M40 273C44.4183 273 48 276.582 48 281L48 305C48 309.418 44.4183 313 40 313L16 313C11.5817 313 8 309.418 8 305L8 281C8 276.582 11.5817 273 16 273L40 273Z" fill="white"/>
<path d="M40 358C44.4183 358 48 361.582 48 366L48 390C48 394.418 44.4183 398 40 398L16 398C11.5817 398 8 394.418 8 390L8 366C8 361.582 11.5817 358 16 358L40 358Z" fill="white"/>
<path d="M40 443C44.4183 443 48 446.582 48 451L48 475C48 479.418 44.4183 483 40 483L16 483C11.5817 483 8 479.418 8 475L8 451C8 446.582 11.5817 443 16 443L40 443Z" fill="white"/>
<path d="M40 528C44.4183 528 48 531.582 48 536L48 560C48 564.418 44.4183 568 40 568L16 568C11.5817 568 8 564.418 8 560L8 536C8 531.582 11.5817 528 16 528L40 528Z" fill="white"/>
<path d="M40 613C44.4183 613 48 616.582 48 621L48 645C48 649.418 44.4183 653 40 653L16 653C11.5817 653 8 649.418 8 645L8 621C8 616.582 11.5817 613 16 613L40 613Z" fill="white"/>
<path d="M40 698C44.4183 698 48 701.582 48 706L48 730C48 734.418 44.4183 738 40 738L16 738C11.5817 738 8 734.418 8 730L8 706C8 701.582 11.5817 698 16 698L40 698Z" fill="white"/>
<path d="M40 783C44.4183 783 48 786.582 48 791L48 815C48 819.418 44.4183 823 40 823L16 823C11.5817 823 8 819.418 8 815L8 791C8 786.582 11.5817 783 16 783L40 783Z" fill="white"/>
<path d="M40 868C44.4183 868 48 871.582 48 876L48 900C48 904.418 44.4183 908 40 908L16 908C11.5817 908 8 904.418 8 900L8 876C8 871.582 11.5817 868 16 868L40 868Z" fill="white"/>
<path d="M40 953C44.4183 953 48 956.582 48 961L48 985C48 989.418 44.4183 993 40 993L16 993C11.5817 993 8 989.418 8 985L8 961C8 956.582 11.5817 953 16 953L40 953Z" fill="white"/>
<path d="M40 1038C44.4183 1038 48 1041.58 48 1046L48 1070C48 1074.42 44.4183 1078 40 1078L16 1078C11.5817 1078 8 1074.42 8 1070L8 1046C8 1041.58 11.5817 1038 16 1038L40 1038Z" fill="white"/>
<path d="M40 1123C44.4183 1123 48 1126.58 48 1131L48 1155C48 1159.42 44.4183 1163 40 1163L16 1163C11.5817 1163 8 1159.42 8 1155L8 1131C8 1126.58 11.5817 1123 16 1123L40 1123Z" fill="white"/>
<path d="M40 1208C44.4183 1208 48 1211.58 48 1216L48 1240C48 1244.42 44.4183 1248 40 1248L16 1248C11.5817 1248 8 1244.42 8 1240L8 1216C8 1211.58 11.5817 1208 16 1208L40 1208Z" fill="white"/>
<path d="M40 1293C44.4183 1293 48 1296.58 48 1301L48 1325C48 1329.42 44.4183 1333 40 1333L16 1333C11.5817 1333 8 1329.42 8 1325L8 1301C8 1296.58 11.5817 1293 16 1293L40 1293Z" fill="white"/>
<path d="M40 1378C44.4183 1378 48 1381.58 48 1386L48 1410C48 1414.42 44.4183 1418 40 1418L16 1418C11.5817 1418 8 1414.42 8 1410L8 1386C8 1381.58 11.5817 1378 16 1378L40 1378Z" fill="white"/>
<path d="M40 1463C44.4183 1463 48 1466.58 48 1471L48 1495C48 1499.42 44.4183 1503 40 1503L16 1503C11.5817 1503 8 1499.42 8 1495L8 1471C8 1466.58 11.5817 1463 16 1463L40 1463Z" fill="white"/>
<path d="M40 1548C44.4183 1548 48 1551.58 48 1556L48 1580C48 1584.42 44.4183 1588 40 1588L16 1588C11.5817 1588 8 1584.42 8 1580L8 1556C8 1551.58 11.5817 1548 16 1548L40 1548Z" fill="white"/>
<path d="M781 12C785.418 12 789 15.5817 789 20L789 44C789 48.4183 785.418 52 781 52L757 52C752.582 52 749 48.4183 749 44L749 20C749 15.5817 752.582 12 757 12L781 12Z" fill="white"/>
<path d="M781 97C785.418 97 789 100.582 789 105L789 129C789 133.418 785.418 137 781 137L757 137C752.582 137 749 133.418 749 129L749 105C749 100.582 752.582 97 757 97L781 97Z" fill="white"/>
<path d="M781 182C785.418 182 789 185.582 789 190L789 214C789 218.418 785.418 222 781 222L757 222C752.582 222 749 218.418 749 214L749 190C749 185.582 752.582 182 757 182L781 182Z" fill="white"/>
<path d="M781 267C785.418 267 789 270.582 789 275L789 299C789 303.418 785.418 307 781 307L757 307C752.582 307 749 303.418 749 299L749 275C749 270.582 752.582 267 757 267L781 267Z" fill="white"/>
<path d="M781 352C785.418 352 789 355.582 789 360L789 384C789 388.418 785.418 392 781 392L757 392C752.582 392 749 388.418 749 384L749 360C749 355.582 752.582 352 757 352L781 352Z" fill="white"/>
<path d="M781 437C785.418 437 789 440.582 789 445L789 469C789 473.418 785.418 477 781 477L757 477C752.582 477 749 473.418 749 469L749 445C749 440.582 752.582 437 757 437L781 437Z" fill="white"/>
<path d="M781 522C785.418 522 789 525.582 789 530L789 554C789 558.418 785.418 562 781 562L757 562C752.582 562 749 558.418 749 554L749 530C749 525.582 752.582 522 757 522L781 522Z" fill="white"/>
<path d="M781 607C785.418 607 789 610.582 789 615L789 639C789 643.418 785.418 647 781 647L757 647C752.582 647 749 643.418 749 639L749 615C749 610.582 752.582 607 757 607L781 607Z" fill="white"/>
<path d="M781 692C785.418 692 789 695.582 789 700L789 724C789 728.418 785.418 732 781 732L757 732C752.582 732 749 728.418 749 724L749 700C749 695.582 752.582 692 757 692L781 692Z" fill="white"/>
<path d="M781 777C785.418 777 789 780.582 789 785L789 809C789 813.418 785.418 817 781 817L757 817C752.582 817 749 813.418 749 809L749 785C749 780.582 752.582 777 757 777L781 777Z" fill="white"/>
<path d="M781 862C785.418 862 789 865.582 789 870L789 894C789 898.418 785.418 902 781 902L757 902C752.582 902 749 898.418 749 894L749 870C749 865.582 752.582 862 757 862L781 862Z" fill="white"/>
<path d="M781 947C785.418 947 789 950.582 789 955L789 979C789 983.418 785.418 987 781 987L757 987C752.582 987 749 983.418 749 979L749 955C749 950.582 752.582 947 757 947L781 947Z" fill="white"/>
<path d="M781 1032C785.418 1032 789 1035.58 789 1040L789 1064C789 1068.42 785.418 1072 781 1072L757 1072C752.582 1072 749 1068.42 749 1064L749 1040C749 1035.58 752.582 1032 757 1032L781 1032Z" fill="white"/>
<path d="M781 1117C785.418 1117 789 1120.58 789 1125L789 1149C789 1153.42 785.418 1157 781 1157L757 1157C752.582 1157 749 1153.42 749 1149L749 1125C749 1120.58 752.582 1117 757 1117L781 1117Z" fill="white"/>
<path d="M781 1202C785.418 1202 789 1205.58 789 1210L789 1234C789 1238.42 785.418 1242 781 1242L757 1242C752.582 1242 749 1238.42 749 1234L749 1210C749 1205.58 752.582 1202 757 1202L781 1202Z" fill="white"/>
<path d="M781 1287C785.418 1287 789 1290.58 789 1295L789 1319C789 1323.42 785.418 1327 781 1327L757 1327C752.582 1327 749 1323.42 749 1319L749 1295C749 1290.58 752.582 1287 757 1287L781 1287Z" fill="white"/>
<path d="M781 1372C785.418 1372 789 1375.58 789 1380L789 1404C789 1408.42 785.418 1412 781 1412L757 1412C752.582 1412 749 1408.42 749 1404L749 1380C749 1375.58 752.582 1372 757 1372L781 1372Z" fill="white"/>
<path d="M781 1457C785.418 1457 789 1460.58 789 1465L789 1489C789 1493.42 785.418 1497 781 1497L757 1497C752.582 1497 749 1493.42 749 1489L749 1465C749 1460.58 752.582 1457 757 1457L781 1457Z" fill="white"/>
<path d="M781 1542C785.418 1542 789 1545.58 789 1550L789 1574C789 1578.42 785.418 1582 781 1582L757 1582C752.582 1582 749 1578.42 749 1574L749 1550C749 1545.58 752.582 1542 757 1542L781 1542Z" fill="white"/>
</g>
<defs>
<clipPath id="clip0_7_428">
<rect width="797" height="1600" rx="20" fill="white"/>
</clipPath>
<clipPath id="clip1_7_428">
<rect width="102.356" height="120.362" fill="white" transform="translate(142.709 1340) rotate(20.7837)"/>
</clipPath>
<clipPath id="clip2_7_428">
<rect width="66.5606" height="78.2697" fill="white" transform="translate(638.773 1481) rotate(20.7837)"/>
</clipPath>
<clipPath id="clip3_7_428">
<rect width="75.747" height="89.0723" fill="white" transform="translate(530.607 -27) rotate(20.7837)"/>
</clipPath>
<clipPath id="clip4_7_428">
<rect width="100.298" height="105.561" fill="white" transform="matrix(0.623862 0.781534 -0.54947 0.835513 654.003 1284)"/>
</clipPath>
</defs>
</svg>
