<svg width="988" height="1525" viewBox="0 0 988 1525" fill="none" xmlns="http://www.w3.org/2000/svg">
<g clip-path="url(#clip0_2_159)">
<rect width="988" height="1525" rx="20" fill="white"/>
<rect y="-12" width="123.5" height="129" fill="#596621"/>
<rect x="123.5" y="-12" width="123.5" height="129" fill="#FFE169"/>
<rect x="247" y="-12" width="123.5" height="129" fill="#596621"/>
<rect x="370.5" y="-12" width="123.5" height="129" fill="#FFE169"/>
<rect x="494" y="-12" width="123.5" height="129" fill="#596621"/>
<rect x="617.5" y="-12" width="123.5" height="129" fill="#FFE169"/>
<rect x="741" y="-12" width="123.5" height="129" fill="#596621"/>
<rect x="864.5" y="-12" width="123.5" height="129" fill="#FFE169"/>
<rect width="123.5" height="129" transform="matrix(-1 0 0 1 988 117)" fill="#596621"/>
<rect width="123.5" height="129" transform="matrix(-1 0 0 1 864.5 117)" fill="#FFE169"/>
<rect width="123.5" height="129" transform="matrix(-1 0 0 1 741 117)" fill="#596621"/>
<rect width="123.5" height="129" transform="matrix(-1 0 0 1 617.5 117)" fill="#FFE169"/>
<rect width="123.5" height="129" transform="matrix(-1 0 0 1 494 117)" fill="#596621"/>
<rect width="123.5" height="129" transform="matrix(-1 0 0 1 370.5 117)" fill="#FFE169"/>
<rect width="123.5" height="129" transform="matrix(-1 0 0 1 247 117)" fill="#596621"/>
<rect width="123.5" height="129" transform="matrix(-1 0 0 1 123.5 117)" fill="#FFE169"/>
<rect y="246" width="123.5" height="129" fill="#596621"/>
<rect x="123.5" y="246" width="123.5" height="129" fill="#FFE169"/>
<rect x="247" y="246" width="123.5" height="129" fill="#596621"/>
<rect x="370.5" y="246" width="123.5" height="129" fill="#FFE169"/>
<rect x="494" y="246" width="123.5" height="129" fill="#596621"/>
<rect x="617.5" y="246" width="123.5" height="129" fill="#FFE169"/>
<rect x="741" y="246" width="123.5" height="129" fill="#596621"/>
<rect x="864.5" y="246" width="123.5" height="129" fill="#FFE169"/>
<rect width="123.5" height="129" transform="matrix(-1 0 0 1 988 375)" fill="#596621"/>
<rect width="123.5" height="129" transform="matrix(-1 0 0 1 864.5 375)" fill="#FFE169"/>
<rect width="123.5" height="129" transform="matrix(-1 0 0 1 741 375)" fill="#596621"/>
<rect width="123.5" height="129" transform="matrix(-1 0 0 1 617.5 375)" fill="#FFE169"/>
<rect width="123.5" height="129" transform="matrix(-1 0 0 1 494 375)" fill="#596621"/>
<rect width="123.5" height="129" transform="matrix(-1 0 0 1 370.5 375)" fill="#FFE169"/>
<rect width="123.5" height="129" transform="matrix(-1 0 0 1 247 375)" fill="#596621"/>
<rect width="123.5" height="129" transform="matrix(-1 0 0 1 123.5 375)" fill="#FFE169"/>
<rect y="504" width="123.5" height="129" fill="#596621"/>
<rect x="123.5" y="504" width="123.5" height="129" fill="#FFE169"/>
<rect x="247" y="504" width="123.5" height="129" fill="#596621"/>
<rect x="370.5" y="504" width="123.5" height="129" fill="#FFE169"/>
<rect x="494" y="504" width="123.5" height="129" fill="#596621"/>
<rect x="617.5" y="504" width="123.5" height="129" fill="#FFE169"/>
<rect x="741" y="504" width="123.5" height="129" fill="#596621"/>
<rect x="864.5" y="504" width="123.5" height="129" fill="#FFE169"/>
<rect width="123.5" height="129" transform="matrix(-1 0 0 1 988 633)" fill="#596621"/>
<rect width="123.5" height="129" transform="matrix(-1 0 0 1 864.5 633)" fill="#FFE169"/>
<rect width="123.5" height="129" transform="matrix(-1 0 0 1 741 633)" fill="#596621"/>
<rect width="123.5" height="129" transform="matrix(-1 0 0 1 617.5 633)" fill="#FFE169"/>
<rect width="123.5" height="129" transform="matrix(-1 0 0 1 494 633)" fill="#596621"/>
<rect width="123.5" height="129" transform="matrix(-1 0 0 1 370.5 633)" fill="#FFE169"/>
<rect width="123.5" height="129" transform="matrix(-1 0 0 1 247 633)" fill="#596621"/>
<rect width="123.5" height="129" transform="matrix(-1 0 0 1 123.5 633)" fill="#FFE169"/>
<rect y="762" width="123.5" height="129" fill="#596621"/>
<rect x="123.5" y="762" width="123.5" height="129" fill="#FFE169"/>
<rect x="247" y="762" width="123.5" height="129" fill="#596621"/>
<rect x="370.5" y="762" width="123.5" height="129" fill="#FFE169"/>
<rect x="494" y="762" width="123.5" height="129" fill="#596621"/>
<rect x="617.5" y="762" width="123.5" height="129" fill="#FFE169"/>
<rect x="741" y="762" width="123.5" height="129" fill="#596621"/>
<rect x="864.5" y="762" width="123.5" height="129" fill="#FFE169"/>
<rect width="123.5" height="129" transform="matrix(-1 0 0 1 988 891)" fill="#596621"/>
<rect width="123.5" height="129" transform="matrix(-1 0 0 1 864.5 891)" fill="#FFE169"/>
<rect width="123.5" height="129" transform="matrix(-1 0 0 1 741 891)" fill="#596621"/>
<rect width="123.5" height="129" transform="matrix(-1 0 0 1 617.5 891)" fill="#FFE169"/>
<rect width="123.5" height="129" transform="matrix(-1 0 0 1 494 891)" fill="#596621"/>
<rect width="123.5" height="129" transform="matrix(-1 0 0 1 370.5 891)" fill="#FFE169"/>
<rect width="123.5" height="129" transform="matrix(-1 0 0 1 247 891)" fill="#596621"/>
<rect width="123.5" height="129" transform="matrix(-1 0 0 1 123.5 891)" fill="#FFE169"/>
<rect y="1020" width="123.5" height="129" fill="#596621"/>
<rect x="123.5" y="1020" width="123.5" height="129" fill="#FFE169"/>
<rect x="247" y="1020" width="123.5" height="129" fill="#596621"/>
<rect x="370.5" y="1020" width="123.5" height="129" fill="#FFE169"/>
<rect x="494" y="1020" width="123.5" height="129" fill="#596621"/>
<rect x="617.5" y="1020" width="123.5" height="129" fill="#FFE169"/>
<rect x="741" y="1020" width="123.5" height="129" fill="#596621"/>
<rect x="864.5" y="1020" width="123.5" height="129" fill="#FFE169"/>
<rect width="123.5" height="129" transform="matrix(-1 0 0 1 988 1149)" fill="#596621"/>
<rect width="123.5" height="129" transform="matrix(-1 0 0 1 864.5 1149)" fill="#FFE169"/>
<rect width="123.5" height="129" transform="matrix(-1 0 0 1 741 1149)" fill="#596621"/>
<rect width="123.5" height="129" transform="matrix(-1 0 0 1 617.5 1149)" fill="#FFE169"/>
<rect width="123.5" height="129" transform="matrix(-1 0 0 1 494 1149)" fill="#596621"/>
<rect width="123.5" height="129" transform="matrix(-1 0 0 1 370.5 1149)" fill="#FFE169"/>
<rect width="123.5" height="129" transform="matrix(-1 0 0 1 247 1149)" fill="#596621"/>
<rect width="123.5" height="129" transform="matrix(-1 0 0 1 123.5 1149)" fill="#FFE169"/>
<rect y="1278" width="123.5" height="129" fill="#596621"/>
<rect x="123.5" y="1278" width="123.5" height="129" fill="#FFE169"/>
<rect x="247" y="1278" width="123.5" height="129" fill="#596621"/>
<rect x="370.5" y="1278" width="123.5" height="129" fill="#FFE169"/>
<rect x="494" y="1278" width="123.5" height="129" fill="#596621"/>
<rect x="617.5" y="1278" width="123.5" height="129" fill="#FFE169"/>
<rect x="741" y="1278" width="123.5" height="129" fill="#596621"/>
<rect x="864.5" y="1278" width="123.5" height="129" fill="#FFE169"/>
<rect width="123.5" height="129" transform="matrix(-1 0 0 1 988 1407)" fill="#596621"/>
<rect width="123.5" height="129" transform="matrix(-1 0 0 1 864.5 1407)" fill="#FFE169"/>
<rect width="123.5" height="129" transform="matrix(-1 0 0 1 741 1407)" fill="#596621"/>
<rect width="123.5" height="129" transform="matrix(-1 0 0 1 617.5 1407)" fill="#FFE169"/>
<rect width="123.5" height="129" transform="matrix(-1 0 0 1 494 1407)" fill="#596621"/>
<rect width="123.5" height="129" transform="matrix(-1 0 0 1 370.5 1407)" fill="#FFE169"/>
<rect width="123.5" height="129" transform="matrix(-1 0 0 1 247 1407)" fill="#596621"/>
<rect width="123.5" height="129" transform="matrix(-1 0 0 1 123.5 1407)" fill="#FFE169"/>
</g>
<defs>
<clipPath id="clip0_2_159">
<rect width="988" height="1525" rx="20" fill="white"/>
</clipPath>
</defs>
</svg>
