<svg width="1100" height="1207" viewBox="0 0 1100 1207" fill="none" xmlns="http://www.w3.org/2000/svg">
<g clip-path="url(#clip0_7_230)">
<rect width="1100" height="1207" rx="20" fill="white"/>
<path d="M1101 1264L1101 1043L881 1043L881 1264L1101 1264Z" fill="#FFE169"/>
<path d="M1101 1043L1101 822L881 822L881 1043L1101 1043Z" fill="#596621"/>
<path d="M1101 822L1101 602L881 602L881 822L1101 822Z" fill="#FFE169"/>
<path d="M1101 602L1101 382L881 382L881 602L1101 602Z" fill="#596621"/>
<path d="M1101 382L1101 162L881 162L881 382L1101 382Z" fill="#FFE169"/>
<path d="M1101 162L1101 -57.9999L881 -57.9999L881 162L1101 162Z" fill="#596621"/>
<path d="M880.5 -57.9999L880.5 162L660.5 162L660.5 -57.9999L880.5 -57.9999Z" fill="#FFE169"/>
<path d="M881 162L881 382L660 382L660 162L881 162Z" fill="#596621"/>
<path d="M880.5 382L880.5 602L660.5 602L660.5 382L880.5 382Z" fill="#FFE169"/>
<path d="M880.5 602L880.5 822L660.5 822L660.5 602L880.5 602Z" fill="#596621"/>
<path d="M881 822L881 1042L660 1042L660 822L881 822Z" fill="#FFE169"/>
<path d="M880.5 1042L880.5 1262L660.5 1262L660.5 1042L880.5 1042Z" fill="#596621"/>
<path d="M660 1264L660 1044L440 1044L440 1264L660 1264Z" fill="#FFE169"/>
<path d="M660 1044L660 824L440 824L440 1044L660 1044Z" fill="#596621"/>
<path d="M660 824L660 604L440 604L440 824L660 824Z" fill="#FFE169"/>
<path d="M660 604L660 384L440 384L440 604L660 604Z" fill="#596621"/>
<path d="M660 384L660 164L440 164L440 384L660 384Z" fill="#FFE169"/>
<path d="M660 164L660 -55.9999L440 -55.9999L440 164L660 164Z" fill="#596621"/>
<path d="M439.5 -57.9999L439.5 162L219.5 162L219.5 -57.9999L439.5 -57.9999Z" fill="#FFE169"/>
<path d="M439.5 162L439.5 382L219.5 382L219.5 162L439.5 162Z" fill="#596621"/>
<path d="M440 382L440 602L219 602L219 382L440 382Z" fill="#FFE169"/>
<path d="M440 602L440 822L219 822L219 602L440 602Z" fill="#596621"/>
<path d="M440 822L440 1042L219 1042L219 822L440 822Z" fill="#FFE169"/>
<path d="M440 1042L440 1262L219 1262L219 1042L440 1042Z" fill="#596621"/>
<path d="M219 1264L219 1044L-1 1044L-1.00001 1264L219 1264Z" fill="#FFE169"/>
<path d="M219 1044L219 824L-1 824L-1.00001 1044L219 1044Z" fill="#596621"/>
<path d="M219 824L219 604L-1 604L-1.00001 824L219 824Z" fill="#FFE169"/>
<path d="M219 604L219 384L-1 384L-1.00001 604L219 604Z" fill="#596621"/>
<path d="M219 384L219 164L-1 164L-1.00001 384L219 384Z" fill="#FFE169"/>
<path d="M219 164L219 -55.9999L-1 -55.9999L-1.00001 164L219 164Z" fill="#596621"/>
</g>
<defs>
<clipPath id="clip0_7_230">
<rect width="1100" height="1207" rx="20" fill="white"/>
</clipPath>
</defs>
</svg>
