<svg width="1100" height="1207" viewBox="0 0 1100 1207" fill="none" xmlns="http://www.w3.org/2000/svg">
<g clip-path="url(#clip0_7_68)">
<rect width="1100" height="1207" rx="20" fill="black"/>
<path d="M50 -56C61.0457 -56 70 -47.0457 70 -36L70 -16C70 -4.9543 61.0457 4 50 4L30 4C18.9543 4 10 -4.9543 10 -16L10 -36C10 -47.0457 18.9543 -56 30 -56L50 -56Z" fill="white"/>
<path d="M50 49C61.0457 49 70 57.9543 70 69L70 89C70 100.046 61.0457 109 50 109L30 109C18.9543 109 10 100.046 10 89L10 69C10 57.9543 18.9543 49 30 49L50 49Z" fill="white"/>
<path d="M50 154C61.0457 154 70 162.954 70 174L70 194C70 205.046 61.0457 214 50 214L30 214C18.9543 214 10 205.046 10 194L10 174C10 162.954 18.9543 154 30 154L50 154Z" fill="white"/>
<path d="M50 259C61.0457 259 70 267.954 70 279L70 299C70 310.046 61.0457 319 50 319L30 319C18.9543 319 10 310.046 10 299L10 279C10 267.954 18.9543 259 30 259L50 259Z" fill="white"/>
<path d="M50 364C61.0457 364 70 372.954 70 384L70 404C70 415.046 61.0457 424 50 424L30 424C18.9543 424 10 415.046 10 404L10 384C10 372.954 18.9543 364 30 364L50 364Z" fill="white"/>
<path d="M50 469C61.0457 469 70 477.954 70 489L70 509C70 520.046 61.0457 529 50 529L30 529C18.9543 529 10 520.046 10 509L10 489C10 477.954 18.9543 469 30 469L50 469Z" fill="white"/>
<path d="M50 574C61.0457 574 70 582.954 70 594L70 614C70 625.046 61.0457 634 50 634L30 634C18.9543 634 10 625.046 10 614L10 594C10 582.954 18.9543 574 30 574L50 574Z" fill="white"/>
<path d="M50 679C61.0457 679 70 687.954 70 699L70 719C70 730.046 61.0457 739 50 739L30 739C18.9543 739 10 730.046 10 719L10 699C10 687.954 18.9543 679 30 679L50 679Z" fill="white"/>
<path d="M50 784C61.0457 784 70 792.954 70 804L70 824C70 835.046 61.0457 844 50 844L30 844C18.9543 844 10 835.046 10 824L10 804C10 792.954 18.9543 784 30 784L50 784Z" fill="white"/>
<path d="M50 889C61.0457 889 70 897.954 70 909L70 929C70 940.046 61.0457 949 50 949L30 949C18.9543 949 10 940.046 10 929L10 909C10 897.954 18.9543 889 30 889L50 889Z" fill="white"/>
<path d="M50 994C61.0457 994 70 1002.95 70 1014L70 1034C70 1045.05 61.0457 1054 50 1054L30 1054C18.9543 1054 10 1045.05 10 1034L10 1014C10 1002.95 18.9543 994 30 994L50 994Z" fill="white"/>
<path d="M50 1099C61.0457 1099 70 1107.95 70 1119L70 1139C70 1150.05 61.0457 1159 50 1159L30 1159C18.9543 1159 10 1150.05 10 1139L10 1119C10 1107.95 18.9543 1099 30 1099L50 1099Z" fill="white"/>
<path d="M50 1204C61.0457 1204 70 1212.95 70 1224L70 1244C70 1255.05 61.0457 1264 50 1264L30 1264C18.9543 1264 10 1255.05 10 1244L10 1224C10 1212.95 18.9543 1204 30 1204L50 1204Z" fill="white"/>
<path d="M1070 -56C1081.05 -56 1090 -47.0457 1090 -36L1090 -16C1090 -4.9543 1081.05 4 1070 4L1050 4C1038.95 4 1030 -4.9543 1030 -16L1030 -36C1030 -47.0457 1038.95 -56 1050 -56L1070 -56Z" fill="white"/>
<path d="M1070 49C1081.05 49 1090 57.9543 1090 69L1090 89C1090 100.046 1081.05 109 1070 109L1050 109C1038.95 109 1030 100.046 1030 89L1030 69C1030 57.9543 1038.95 49 1050 49L1070 49Z" fill="white"/>
<path d="M1070 154C1081.05 154 1090 162.954 1090 174L1090 194C1090 205.046 1081.05 214 1070 214L1050 214C1038.95 214 1030 205.046 1030 194L1030 174C1030 162.954 1038.95 154 1050 154L1070 154Z" fill="white"/>
<path d="M1070 259C1081.05 259 1090 267.954 1090 279L1090 299C1090 310.046 1081.05 319 1070 319L1050 319C1038.95 319 1030 310.046 1030 299L1030 279C1030 267.954 1038.95 259 1050 259L1070 259Z" fill="white"/>
<path d="M1070 364C1081.05 364 1090 372.954 1090 384L1090 404C1090 415.046 1081.05 424 1070 424L1050 424C1038.95 424 1030 415.046 1030 404L1030 384C1030 372.954 1038.95 364 1050 364L1070 364Z" fill="white"/>
<path d="M1070 469C1081.05 469 1090 477.954 1090 489L1090 509C1090 520.046 1081.05 529 1070 529L1050 529C1038.95 529 1030 520.046 1030 509L1030 489C1030 477.954 1038.95 469 1050 469L1070 469Z" fill="white"/>
<path d="M1070 574C1081.05 574 1090 582.954 1090 594L1090 614C1090 625.046 1081.05 634 1070 634L1050 634C1038.95 634 1030 625.046 1030 614L1030 594C1030 582.954 1038.95 574 1050 574L1070 574Z" fill="white"/>
<path d="M1070 679C1081.05 679 1090 687.954 1090 699L1090 719C1090 730.046 1081.05 739 1070 739L1050 739C1038.95 739 1030 730.046 1030 719L1030 699C1030 687.954 1038.95 679 1050 679L1070 679Z" fill="white"/>
<path d="M1070 784C1081.05 784 1090 792.954 1090 804L1090 824C1090 835.046 1081.05 844 1070 844L1050 844C1038.95 844 1030 835.046 1030 824L1030 804C1030 792.954 1038.95 784 1050 784L1070 784Z" fill="white"/>
<path d="M1070 889C1081.05 889 1090 897.954 1090 909L1090 929C1090 940.046 1081.05 949 1070 949L1050 949C1038.95 949 1030 940.046 1030 929L1030 909C1030 897.954 1038.95 889 1050 889L1070 889Z" fill="white"/>
<path d="M1070 994C1081.05 994 1090 1002.95 1090 1014L1090 1034C1090 1045.05 1081.05 1054 1070 1054L1050 1054C1038.95 1054 1030 1045.05 1030 1034L1030 1014C1030 1002.95 1038.95 994 1050 994L1070 994Z" fill="white"/>
<path d="M1070 1099C1081.05 1099 1090 1107.95 1090 1119L1090 1139C1090 1150.05 1081.05 1159 1070 1159L1050 1159C1038.95 1159 1030 1150.05 1030 1139L1030 1119C1030 1107.95 1038.95 1099 1050 1099L1070 1099Z" fill="white"/>
<path d="M1070 1204C1081.05 1204 1090 1212.95 1090 1224L1090 1244C1090 1255.05 1081.05 1264 1070 1264L1050 1264C1038.95 1264 1030 1255.05 1030 1244L1030 1224C1030 1212.95 1038.95 1204 1050 1204L1070 1204Z" fill="white"/>
<g clip-path="url(#clip1_7_68)">
<mask id="mask0_7_68" style="mask-type:luminance" maskUnits="userSpaceOnUse" x="100" y="988" width="139" height="149">
<path d="M238.404 1024.32L142.709 988L100 1100.53L195.695 1136.85L238.404 1024.32Z" fill="white"/>
</mask>
<g mask="url(#mask0_7_68)">
<path d="M147.847 1118.69C166.693 1064.86 166.063 1063.11 121.355 1044.26C167.303 1059.84 168.934 1058.94 190.557 1006.16C171.711 1059.99 172.341 1061.74 217.05 1080.58C171.098 1065.02 169.477 1065.9 147.847 1118.69Z" fill="#F3F3F3"/>
</g>
</g>
<g clip-path="url(#clip2_7_68)">
<mask id="mask1_7_68" style="mask-type:luminance" maskUnits="userSpaceOnUse" x="843" y="1050" width="104" height="111">
<path d="M946.424 1076.88L875.606 1050L844 1133.28L914.818 1160.15L946.424 1076.88Z" fill="white"/>
</mask>
<g mask="url(#mask1_7_68)">
<path d="M879.409 1146.72C893.355 1106.88 892.889 1105.58 859.803 1091.64C893.806 1103.16 895.013 1102.5 911.015 1063.44C897.069 1103.28 897.535 1104.57 930.621 1118.52C896.615 1107 895.416 1107.65 879.409 1146.72Z" fill="#F3F3F3"/>
</g>
</g>
<g clip-path="url(#clip3_7_68)">
<mask id="mask2_7_68" style="mask-type:luminance" maskUnits="userSpaceOnUse" x="499" y="-27" width="103" height="111">
<path d="M601.424 -0.121781L530.607 -27L499 56.276L569.818 83.1542L601.424 -0.121781Z" fill="white"/>
</mask>
<g mask="url(#mask2_7_68)">
<path d="M534.409 69.7151C548.356 29.879 547.889 28.5816 514.803 14.638C548.807 26.1645 550.014 25.4951 566.016 -13.5609C552.069 26.2752 552.535 27.5727 585.621 41.5162C551.616 29.996 550.416 30.6471 534.409 69.7151Z" fill="#F3F3F3"/>
</g>
</g>
<g clip-path="url(#clip4_7_68)">
<mask id="mask3_7_68" style="mask-type:luminance" maskUnits="userSpaceOnUse" x="500" y="860" width="153" height="115">
<path d="M652 916.601L569.336 860L500 917.627L582.664 974.228L652 916.601Z" fill="white"/>
</mask>
<g mask="url(#mask3_7_68)">
<path d="M610.668 888.301L580.019 915.788L629.74 916.752L580.322 918.384L617.332 945.415L578.093 920.237L580.712 957.5L574.638 920.26L541.332 945.927L571.981 918.441L522.26 917.477L571.678 915.844L534.668 888.813L573.907 913.992L571.288 876.728L577.362 913.968L610.668 888.301Z" fill="#F3F3F3"/>
</g>
</g>
</g>
<defs>
<clipPath id="clip0_7_68">
<rect width="1100" height="1207" rx="20" fill="white"/>
</clipPath>
<clipPath id="clip1_7_68">
<rect width="102.356" height="120.362" fill="white" transform="translate(142.709 988) rotate(20.7837)"/>
</clipPath>
<clipPath id="clip2_7_68">
<rect width="75.747" height="89.0723" fill="white" transform="translate(875.606 1050) rotate(20.7837)"/>
</clipPath>
<clipPath id="clip3_7_68">
<rect width="75.747" height="89.0723" fill="white" transform="translate(530.607 -27) rotate(20.7837)"/>
</clipPath>
<clipPath id="clip4_7_68">
<rect width="100.185" height="90.1575" fill="white" transform="matrix(0.825112 0.564969 -0.769059 0.639178 569.336 860)"/>
</clipPath>
</defs>
</svg>
