<svg width="1100" height="1207" viewBox="0 0 1100 1207" fill="none" xmlns="http://www.w3.org/2000/svg">
<g clip-path="url(#clip0_7_68)">
<rect width="1100" height="1207" rx="20" fill="black"/>
<g clip-path="url(#clip1_7_68)">
<mask id="mask0_7_68" style="mask-type:luminance" maskUnits="userSpaceOnUse" x="100" y="988" width="139" height="149">
<path d="M238.404 1024.32L142.709 988L100 1100.53L195.695 1136.85L238.404 1024.32Z" fill="white"/>
</mask>
<g mask="url(#mask0_7_68)">
<path d="M147.847 1118.69C166.693 1064.86 166.063 1063.11 121.355 1044.26C167.303 1059.84 168.934 1058.94 190.557 1006.16C171.711 1059.99 172.341 1061.74 217.05 1080.58C171.098 1065.02 169.477 1065.9 147.847 1118.69Z" fill="#F3F3F3"/>
</g>
</g>
<g clip-path="url(#clip2_7_68)">
<mask id="mask1_7_68" style="mask-type:luminance" maskUnits="userSpaceOnUse" x="843" y="1050" width="104" height="111">
<path d="M946.424 1076.88L875.606 1050L844 1133.28L914.818 1160.15L946.424 1076.88Z" fill="white"/>
</mask>
<g mask="url(#mask1_7_68)">
<path d="M879.409 1146.72C893.355 1106.88 892.889 1105.58 859.803 1091.64C893.806 1103.16 895.013 1102.5 911.015 1063.44C897.069 1103.28 897.535 1104.57 930.621 1118.52C896.615 1107 895.416 1107.65 879.409 1146.72Z" fill="#F3F3F3"/>
</g>
</g>
<g clip-path="url(#clip3_7_68)">
<mask id="mask2_7_68" style="mask-type:luminance" maskUnits="userSpaceOnUse" x="499" y="-27" width="103" height="111">
<path d="M601.424 -0.121781L530.607 -27L499 56.276L569.818 83.1542L601.424 -0.121781Z" fill="white"/>
</mask>
<g mask="url(#mask2_7_68)">
<path d="M534.409 69.7151C548.356 29.879 547.889 28.5816 514.803 14.638C548.807 26.1645 550.014 25.4951 566.016 -13.5609C552.069 26.2752 552.535 27.5727 585.621 41.5162C551.616 29.996 550.416 30.6471 534.409 69.7151Z" fill="#F3F3F3"/>
</g>
</g>
<g clip-path="url(#clip4_7_68)">
<mask id="mask3_7_68" style="mask-type:luminance" maskUnits="userSpaceOnUse" x="500" y="860" width="153" height="115">
<path d="M652 916.601L569.336 860L500 917.627L582.664 974.228L652 916.601Z" fill="white"/>
</mask>
<g mask="url(#mask3_7_68)">
<path d="M610.668 888.301L580.019 915.788L629.74 916.752L580.322 918.384L617.332 945.415L578.093 920.237L580.712 957.5L574.638 920.26L541.332 945.927L571.981 918.441L522.26 917.477L571.678 915.844L534.668 888.813L573.907 913.992L571.288 876.728L577.362 913.968L610.668 888.301Z" fill="#F3F3F3"/>
</g>
</g>
<path d="M40 34C44.4183 34 48 37.5817 48 42L48 66C48 70.4183 44.4183 74 40 74L16 74C11.5817 74 8 70.4183 8 66L8 42C8 37.5817 11.5817 34 16 34L40 34Z" fill="white"/>
<path d="M40 119C44.4183 119 48 122.582 48 127L48 151C48 155.418 44.4183 159 40 159L16 159C11.5817 159 8 155.418 8 151L8 127C8 122.582 11.5817 119 16 119L40 119Z" fill="white"/>
<path d="M40 204C44.4183 204 48 207.582 48 212L48 236C48 240.418 44.4183 244 40 244L16 244C11.5817 244 8 240.418 8 236L8 212C8 207.582 11.5817 204 16 204L40 204Z" fill="white"/>
<path d="M40 289C44.4183 289 48 292.582 48 297L48 321C48 325.418 44.4183 329 40 329L16 329C11.5817 329 8 325.418 8 321L8 297C8 292.582 11.5817 289 16 289L40 289Z" fill="white"/>
<path d="M40 374C44.4183 374 48 377.582 48 382L48 406C48 410.418 44.4183 414 40 414L16 414C11.5817 414 8 410.418 8 406L8 382C8 377.582 11.5817 374 16 374L40 374Z" fill="white"/>
<path d="M40 459C44.4183 459 48 462.582 48 467L48 491C48 495.418 44.4183 499 40 499L16 499C11.5817 499 8 495.418 8 491L8 467C8 462.582 11.5817 459 16 459L40 459Z" fill="white"/>
<path d="M40 544C44.4183 544 48 547.582 48 552L48 576C48 580.418 44.4183 584 40 584L16 584C11.5817 584 8 580.418 8 576L8 552C8 547.582 11.5817 544 16 544L40 544Z" fill="white"/>
<path d="M40 629C44.4183 629 48 632.582 48 637L48 661C48 665.418 44.4183 669 40 669L16 669C11.5817 669 8 665.418 8 661L8 637C8 632.582 11.5817 629 16 629L40 629Z" fill="white"/>
<path d="M40 714C44.4183 714 48 717.582 48 722L48 746C48 750.418 44.4183 754 40 754L16 754C11.5817 754 8 750.418 8 746L8 722C8 717.582 11.5817 714 16 714L40 714Z" fill="white"/>
<path d="M40 799C44.4183 799 48 802.582 48 807L48 831C48 835.418 44.4183 839 40 839L16 839C11.5817 839 8 835.418 8 831L8 807C8 802.582 11.5817 799 16 799L40 799Z" fill="white"/>
<path d="M40 884C44.4183 884 48 887.582 48 892L48 916C48 920.418 44.4183 924 40 924L16 924C11.5817 924 8 920.418 8 916L8 892C8 887.582 11.5817 884 16 884L40 884Z" fill="white"/>
<path d="M40 969C44.4183 969 48 972.582 48 977L48 1001C48 1005.42 44.4183 1009 40 1009L16 1009C11.5817 1009 8 1005.42 8 1001L8 977C8 972.582 11.5817 969 16 969L40 969Z" fill="white"/>
<path d="M40 1054C44.4183 1054 48 1057.58 48 1062L48 1086C48 1090.42 44.4183 1094 40 1094L16 1094C11.5817 1094 8 1090.42 8 1086L8 1062C8 1057.58 11.5817 1054 16 1054L40 1054Z" fill="white"/>
<path d="M40 1139C44.4183 1139 48 1142.58 48 1147L48 1171C48 1175.42 44.4183 1179 40 1179L16 1179C11.5817 1179 8 1175.42 8 1171L8 1147C8 1142.58 11.5817 1139 16 1139L40 1139Z" fill="white"/>
<path d="M1084 34C1088.42 34 1092 37.5817 1092 42L1092 66C1092 70.4183 1088.42 74 1084 74L1060 74C1055.58 74 1052 70.4183 1052 66L1052 42C1052 37.5817 1055.58 34 1060 34L1084 34Z" fill="white"/>
<path d="M1084 119C1088.42 119 1092 122.582 1092 127L1092 151C1092 155.418 1088.42 159 1084 159L1060 159C1055.58 159 1052 155.418 1052 151L1052 127C1052 122.582 1055.58 119 1060 119L1084 119Z" fill="white"/>
<path d="M1084 204C1088.42 204 1092 207.582 1092 212L1092 236C1092 240.418 1088.42 244 1084 244L1060 244C1055.58 244 1052 240.418 1052 236L1052 212C1052 207.582 1055.58 204 1060 204L1084 204Z" fill="white"/>
<path d="M1084 289C1088.42 289 1092 292.582 1092 297L1092 321C1092 325.418 1088.42 329 1084 329L1060 329C1055.58 329 1052 325.418 1052 321L1052 297C1052 292.582 1055.58 289 1060 289L1084 289Z" fill="white"/>
<path d="M1084 374C1088.42 374 1092 377.582 1092 382L1092 406C1092 410.418 1088.42 414 1084 414L1060 414C1055.58 414 1052 410.418 1052 406L1052 382C1052 377.582 1055.58 374 1060 374L1084 374Z" fill="white"/>
<path d="M1084 459C1088.42 459 1092 462.582 1092 467L1092 491C1092 495.418 1088.42 499 1084 499L1060 499C1055.58 499 1052 495.418 1052 491L1052 467C1052 462.582 1055.58 459 1060 459L1084 459Z" fill="white"/>
<path d="M1084 544C1088.42 544 1092 547.582 1092 552L1092 576C1092 580.418 1088.42 584 1084 584L1060 584C1055.58 584 1052 580.418 1052 576L1052 552C1052 547.582 1055.58 544 1060 544L1084 544Z" fill="white"/>
<path d="M1084 629C1088.42 629 1092 632.582 1092 637L1092 661C1092 665.418 1088.42 669 1084 669L1060 669C1055.58 669 1052 665.418 1052 661L1052 637C1052 632.582 1055.58 629 1060 629L1084 629Z" fill="white"/>
<path d="M1084 714C1088.42 714 1092 717.582 1092 722L1092 746C1092 750.418 1088.42 754 1084 754L1060 754C1055.58 754 1052 750.418 1052 746L1052 722C1052 717.582 1055.58 714 1060 714L1084 714Z" fill="white"/>
<path d="M1084 799C1088.42 799 1092 802.582 1092 807L1092 831C1092 835.418 1088.42 839 1084 839L1060 839C1055.58 839 1052 835.418 1052 831L1052 807C1052 802.582 1055.58 799 1060 799L1084 799Z" fill="white"/>
<path d="M1084 884C1088.42 884 1092 887.582 1092 892L1092 916C1092 920.418 1088.42 924 1084 924L1060 924C1055.58 924 1052 920.418 1052 916L1052 892C1052 887.582 1055.58 884 1060 884L1084 884Z" fill="white"/>
<path d="M1084 969C1088.42 969 1092 972.582 1092 977L1092 1001C1092 1005.42 1088.42 1009 1084 1009L1060 1009C1055.58 1009 1052 1005.42 1052 1001L1052 977C1052 972.582 1055.58 969 1060 969L1084 969Z" fill="white"/>
<path d="M1084 1054C1088.42 1054 1092 1057.58 1092 1062L1092 1086C1092 1090.42 1088.42 1094 1084 1094L1060 1094C1055.58 1094 1052 1090.42 1052 1086L1052 1062C1052 1057.58 1055.58 1054 1060 1054L1084 1054Z" fill="white"/>
<path d="M1084 1139C1088.42 1139 1092 1142.58 1092 1147L1092 1171C1092 1175.42 1088.42 1179 1084 1179L1060 1179C1055.58 1179 1052 1175.42 1052 1171L1052 1147C1052 1142.58 1055.58 1139 1060 1139L1084 1139Z" fill="white"/>
</g>
<defs>
<clipPath id="clip0_7_68">
<rect width="1100" height="1207" rx="20" fill="white"/>
</clipPath>
<clipPath id="clip1_7_68">
<rect width="102.356" height="120.362" fill="white" transform="translate(142.709 988) rotate(20.7837)"/>
</clipPath>
<clipPath id="clip2_7_68">
<rect width="75.747" height="89.0723" fill="white" transform="translate(875.606 1050) rotate(20.7837)"/>
</clipPath>
<clipPath id="clip3_7_68">
<rect width="75.747" height="89.0723" fill="white" transform="translate(530.607 -27) rotate(20.7837)"/>
</clipPath>
<clipPath id="clip4_7_68">
<rect width="100.185" height="90.1575" fill="white" transform="matrix(0.825112 0.564969 -0.769059 0.639178 569.336 860)"/>
</clipPath>
</defs>
</svg>
