<svg width="797" height="1600" viewBox="0 0 797 1600" fill="none" xmlns="http://www.w3.org/2000/svg">
<g clip-path="url(#clip0_7_428)">
<rect width="797" height="1600" rx="20" fill="black"/>
<path d="M50 35C61.0457 35 70 43.9543 70 55L70 75C70 86.0457 61.0457 95 50 95L30 95C18.9543 95 10 86.0457 10 75L10 55C10 43.9543 18.9543 35 30 35L50 35Z" fill="white"/>
<path d="M50 140C61.0457 140 70 148.954 70 160L70 180C70 191.046 61.0457 200 50 200L30 200C18.9543 200 10 191.046 10 180L10 160C10 148.954 18.9543 140 30 140L50 140Z" fill="white"/>
<path d="M50 245C61.0457 245 70 253.954 70 265L70 285C70 296.046 61.0457 305 50 305L30 305C18.9543 305 10 296.046 10 285L10 265C10 253.954 18.9543 245 30 245L50 245Z" fill="white"/>
<path d="M50 350C61.0457 350 70 358.954 70 370L70 390C70 401.046 61.0457 410 50 410L30 410C18.9543 410 10 401.046 10 390L10 370C10 358.954 18.9543 350 30 350L50 350Z" fill="white"/>
<path d="M50 455C61.0457 455 70 463.954 70 475L70 495C70 506.046 61.0457 515 50 515L30 515C18.9543 515 10 506.046 10 495L10 475C10 463.954 18.9543 455 30 455L50 455Z" fill="white"/>
<path d="M50 560C61.0457 560 70 568.954 70 580L70 600C70 611.046 61.0457 620 50 620L30 620C18.9543 620 10 611.046 10 600L10 580C10 568.954 18.9543 560 30 560L50 560Z" fill="white"/>
<path d="M50 665C61.0457 665 70 673.954 70 685L70 705C70 716.046 61.0457 725 50 725L30 725C18.9543 725 10 716.046 10 705L10 685C10 673.954 18.9543 665 30 665L50 665Z" fill="white"/>
<path d="M50 770C61.0457 770 70 778.954 70 790L70 810C70 821.046 61.0457 830 50 830L30 830C18.9543 830 10 821.046 10 810L10 790C10 778.954 18.9543 770 30 770L50 770Z" fill="white"/>
<path d="M50 875C61.0457 875 70 883.954 70 895L70 915C70 926.046 61.0457 935 50 935L30 935C18.9543 935 10 926.046 10 915L10 895C10 883.954 18.9543 875 30 875L50 875Z" fill="white"/>
<path d="M50 980C61.0457 980 70 988.954 70 1000L70 1020C70 1031.05 61.0457 1040 50 1040L30 1040C18.9543 1040 10 1031.05 10 1020L10 1000C10 988.954 18.9543 980 30 980L50 980Z" fill="white"/>
<path d="M50 1085C61.0457 1085 70 1093.95 70 1105L70 1125C70 1136.05 61.0457 1145 50 1145L30 1145C18.9543 1145 10 1136.05 10 1125L10 1105C10 1093.95 18.9543 1085 30 1085L50 1085Z" fill="white"/>
<path d="M50 1190C61.0457 1190 70 1198.95 70 1210L70 1230C70 1241.05 61.0457 1250 50 1250L30 1250C18.9543 1250 10 1241.05 10 1230L10 1210C10 1198.95 18.9543 1190 30 1190L50 1190Z" fill="white"/>
<path d="M50 1295C61.0457 1295 70 1303.95 70 1315L70 1335C70 1346.05 61.0457 1355 50 1355L30 1355C18.9543 1355 10 1346.05 10 1335L10 1315C10 1303.95 18.9543 1295 30 1295L50 1295Z" fill="white"/>
<path d="M50 1400C61.0457 1400 70 1408.95 70 1420L70 1440C70 1451.05 61.0457 1460 50 1460L30 1460C18.9543 1460 10 1451.05 10 1440L10 1420C10 1408.95 18.9543 1400 30 1400L50 1400Z" fill="white"/>
<path d="M50 1505C61.0457 1505 70 1513.95 70 1525L70 1545C70 1556.05 61.0457 1565 50 1565L30 1565C18.9543 1565 10 1556.05 10 1545L10 1525C10 1513.95 18.9543 1505 30 1505L50 1505Z" fill="white"/>
<path d="M767 35C778.046 35 787 43.9543 787 55L787 75C787 86.0457 778.046 95 767 95L747 95C735.954 95 727 86.0457 727 75L727 55C727 43.9543 735.954 35 747 35L767 35Z" fill="white"/>
<path d="M767 140C778.046 140 787 148.954 787 160L787 180C787 191.046 778.046 200 767 200L747 200C735.954 200 727 191.046 727 180L727 160C727 148.954 735.954 140 747 140L767 140Z" fill="white"/>
<path d="M767 245C778.046 245 787 253.954 787 265L787 285C787 296.046 778.046 305 767 305L747 305C735.954 305 727 296.046 727 285L727 265C727 253.954 735.954 245 747 245L767 245Z" fill="white"/>
<path d="M767 350C778.046 350 787 358.954 787 370L787 390C787 401.046 778.046 410 767 410L747 410C735.954 410 727 401.046 727 390L727 370C727 358.954 735.954 350 747 350L767 350Z" fill="white"/>
<path d="M767 455C778.046 455 787 463.954 787 475L787 495C787 506.046 778.046 515 767 515L747 515C735.954 515 727 506.046 727 495L727 475C727 463.954 735.954 455 747 455L767 455Z" fill="white"/>
<path d="M767 560C778.046 560 787 568.954 787 580L787 600C787 611.046 778.046 620 767 620L747 620C735.954 620 727 611.046 727 600L727 580C727 568.954 735.954 560 747 560L767 560Z" fill="white"/>
<path d="M767 665C778.046 665 787 673.954 787 685L787 705C787 716.046 778.046 725 767 725L747 725C735.954 725 727 716.046 727 705L727 685C727 673.954 735.954 665 747 665L767 665Z" fill="white"/>
<path d="M767 770C778.046 770 787 778.954 787 790L787 810C787 821.046 778.046 830 767 830L747 830C735.954 830 727 821.046 727 810L727 790C727 778.954 735.954 770 747 770L767 770Z" fill="white"/>
<path d="M767 875C778.046 875 787 883.954 787 895L787 915C787 926.046 778.046 935 767 935L747 935C735.954 935 727 926.046 727 915L727 895C727 883.954 735.954 875 747 875L767 875Z" fill="white"/>
<path d="M767 980C778.046 980 787 988.954 787 1000L787 1020C787 1031.05 778.046 1040 767 1040L747 1040C735.954 1040 727 1031.05 727 1020L727 1000C727 988.954 735.954 980 747 980L767 980Z" fill="white"/>
<path d="M767 1085C778.046 1085 787 1093.95 787 1105L787 1125C787 1136.05 778.046 1145 767 1145L747 1145C735.954 1145 727 1136.05 727 1125L727 1105C727 1093.95 735.954 1085 747 1085L767 1085Z" fill="white"/>
<path d="M767 1190C778.046 1190 787 1198.95 787 1210L787 1230C787 1241.05 778.046 1250 767 1250L747 1250C735.954 1250 727 1241.05 727 1230L727 1210C727 1198.95 735.954 1190 747 1190L767 1190Z" fill="white"/>
<path d="M767 1295C778.046 1295 787 1303.95 787 1315L787 1335C787 1346.05 778.046 1355 767 1355L747 1355C735.954 1355 727 1346.05 727 1335L727 1315C727 1303.95 735.954 1295 747 1295L767 1295Z" fill="white"/>
<path d="M767 1400C778.046 1400 787 1408.95 787 1420L787 1440C787 1451.05 778.046 1460 767 1460L747 1460C735.954 1460 727 1451.05 727 1440L727 1420C727 1408.95 735.954 1400 747 1400L767 1400Z" fill="white"/>
<path d="M767 1505C778.046 1505 787 1513.95 787 1525L787 1545C787 1556.05 778.046 1565 767 1565L747 1565C735.954 1565 727 1556.05 727 1545L727 1525C727 1513.95 735.954 1505 747 1505L767 1505Z" fill="white"/>
<g clip-path="url(#clip1_7_428)">
<mask id="mask0_7_428" style="mask-type:luminance" maskUnits="userSpaceOnUse" x="100" y="1340" width="139" height="149">
<path d="M238.404 1376.32L142.709 1340L100 1452.53L195.695 1488.85L238.404 1376.32Z" fill="white"/>
</mask>
<g mask="url(#mask0_7_428)">
<path d="M147.847 1470.69C166.693 1416.86 166.063 1415.11 121.355 1396.26C167.303 1411.84 168.934 1410.94 190.557 1358.16C171.711 1411.99 172.341 1413.74 217.05 1432.58C171.098 1417.02 169.477 1417.9 147.847 1470.69Z" fill="#F3F3F3"/>
</g>
</g>
<g clip-path="url(#clip2_7_428)">
<mask id="mask1_7_428" style="mask-type:luminance" maskUnits="userSpaceOnUse" x="611" y="1481" width="91" height="97">
<path d="M701.003 1504.62L638.773 1481L611 1554.18L673.229 1577.79L701.003 1504.62Z" fill="white"/>
</mask>
<g mask="url(#mask1_7_428)">
<path d="M642.115 1565.99C654.37 1530.98 653.96 1529.84 624.887 1517.59C654.766 1527.72 655.827 1527.13 669.888 1492.81C657.633 1527.81 658.043 1528.95 687.116 1541.21C657.235 1531.08 656.18 1531.66 642.115 1565.99Z" fill="#F3F3F3"/>
</g>
</g>
<g clip-path="url(#clip3_7_428)">
<mask id="mask2_7_428" style="mask-type:luminance" maskUnits="userSpaceOnUse" x="499" y="-27" width="103" height="111">
<path d="M601.424 -0.121781L530.607 -27L499 56.276L569.818 83.1542L601.424 -0.121781Z" fill="white"/>
</mask>
<g mask="url(#mask2_7_428)">
<path d="M534.409 69.7151C548.356 29.879 547.889 28.5816 514.803 14.638C548.807 26.1645 550.014 25.4951 566.016 -13.5609C552.069 26.2752 552.535 27.5727 585.621 41.5162C551.616 29.996 550.416 30.6471 534.409 69.7151Z" fill="#F3F3F3"/>
</g>
</g>
<g clip-path="url(#clip4_7_428)">
<mask id="mask3_7_428" style="mask-type:luminance" maskUnits="userSpaceOnUse" x="596" y="1284" width="121" height="167">
<path d="M716.575 1362.39L654.003 1284L596 1372.2L658.572 1450.58L716.575 1362.39Z" fill="white"/>
</mask>
<g mask="url(#mask3_7_428)">
<path d="M685.289 1323.19L659.544 1365.13L698.917 1363.82L659.648 1368.92L687.573 1406.48L657.783 1371.75L657.903 1426.19L655.042 1371.97L627.286 1411.39L653.031 1369.45L613.658 1370.76L652.927 1365.67L625.001 1328.1L654.792 1362.83L654.672 1308.4L657.532 1362.61L685.289 1323.19Z" fill="#F3F3F3"/>
</g>
</g>
</g>
<defs>
<clipPath id="clip0_7_428">
<rect width="797" height="1600" rx="20" fill="white"/>
</clipPath>
<clipPath id="clip1_7_428">
<rect width="102.356" height="120.362" fill="white" transform="translate(142.709 1340) rotate(20.7837)"/>
</clipPath>
<clipPath id="clip2_7_428">
<rect width="66.5606" height="78.2697" fill="white" transform="translate(638.773 1481) rotate(20.7837)"/>
</clipPath>
<clipPath id="clip3_7_428">
<rect width="75.747" height="89.0723" fill="white" transform="translate(530.607 -27) rotate(20.7837)"/>
</clipPath>
<clipPath id="clip4_7_428">
<rect width="100.298" height="105.561" fill="white" transform="matrix(0.623862 0.781534 -0.54947 0.835513 654.003 1284)"/>
</clipPath>
</defs>
</svg>
