<svg width="797" height="1600" viewBox="0 0 797 1600" fill="none" xmlns="http://www.w3.org/2000/svg">
<g clip-path="url(#clip0_7_496)">
<rect width="797" height="1600" rx="20" fill="white"/>
<path d="M950 1680L950 1460L730 1460L730 1680L950 1680Z" fill="#596621"/>
<path d="M950 1460L950 1239L730 1239L730 1460L950 1460Z" fill="#FFE169"/>
<path d="M950 1239L950 1018L730 1018L730 1239L950 1239Z" fill="#596621"/>
<path d="M950 1018L950 798L730 798L730 1018L950 1018Z" fill="#FFE169"/>
<path d="M950 798L950 578L730 578L730 798L950 798Z" fill="#596621"/>
<path d="M950 578L950 358L730 358L730 578L950 578Z" fill="#FFE169"/>
<path d="M950 358L950 138L730 138L730 358L950 358Z" fill="#596621"/>
<path d="M950 138L950 -82L730 -82L730 138L950 138Z" fill="#FFE169"/>
<path d="M729.5 -82L729.5 138L509.5 138L509.5 -82L729.5 -82Z" fill="#596621"/>
<path d="M729.5 138L729.5 358L509.5 358L509.5 138L729.5 138Z" fill="#FFE169"/>
<path d="M730 358L730 578L509 578L509 358L730 358Z" fill="#596621"/>
<path d="M729.5 578L729.5 798L509.5 798L509.5 578L729.5 578Z" fill="#FFE169"/>
<path d="M729.5 798L729.5 1018L509.5 1018L509.5 798L729.5 798Z" fill="#596621"/>
<path d="M730 1018L730 1238L509 1238L509 1018L730 1018Z" fill="#FFE169"/>
<path d="M729.5 1238L729.5 1458L509.5 1458L509.5 1238L729.5 1238Z" fill="#596621"/>
<path d="M729.5 1458L729.5 1678L509.5 1678L509.5 1458L729.5 1458Z" fill="#FFE169"/>
<path d="M509 1680L509 1460L289 1460L289 1680L509 1680Z" fill="#596621"/>
<path d="M509 1460L509 1240L289 1240L289 1460L509 1460Z" fill="#FFE169"/>
<path d="M509 1240L509 1020L289 1020L289 1240L509 1240Z" fill="#596621"/>
<path d="M509 1020L509 800L289 800L289 1020L509 1020Z" fill="#FFE169"/>
<path d="M509 800L509 580L289 580L289 800L509 800Z" fill="#596621"/>
<path d="M509 580L509 360L289 360L289 580L509 580Z" fill="#FFE169"/>
<path d="M509 360L509 140L289 140L289 360L509 360Z" fill="#596621"/>
<path d="M509 140L509 -80L289 -80L289 140L509 140Z" fill="#FFE169"/>
<path d="M289 -82L289 138L68 138L68 -82L289 -82Z" fill="#596621"/>
<path d="M288.5 138L288.5 358L68.5 358L68.5 138L288.5 138Z" fill="#FFE169"/>
<path d="M288.5 358L288.5 578L68.5 578L68.5 358L288.5 358Z" fill="#596621"/>
<path d="M289 578L289 798L68 798L68 578L289 578Z" fill="#FFE169"/>
<path d="M289 798L289 1018L68 1018L68 798L289 798Z" fill="#596621"/>
<path d="M289 1018L289 1238L68 1238L68 1018L289 1018Z" fill="#FFE169"/>
<path d="M289 1238L289 1458L68 1458L68 1238L289 1238Z" fill="#596621"/>
<path d="M289 1458L289 1678L68 1678L68 1458L289 1458Z" fill="#FFE169"/>
<path d="M68 1680L68 1460L-152 1460L-152 1680L68 1680Z" fill="#596621"/>
<path d="M68 1460L68 1240L-152 1240L-152 1460L68 1460Z" fill="#FFE169"/>
<path d="M68 1240L68 1020L-152 1020L-152 1240L68 1240Z" fill="#596621"/>
<path d="M68 1020L68 800L-152 800L-152 1020L68 1020Z" fill="#FFE169"/>
<path d="M68 800L68 580L-152 580L-152 800L68 800Z" fill="#596621"/>
<path d="M68 580L68 360L-152 360L-152 580L68 580Z" fill="#FFE169"/>
<path d="M68 360L68 140L-152 140L-152 360L68 360Z" fill="#596621"/>
<path d="M68 140L68 -80L-152 -80L-152 140L68 140Z" fill="#FFE169"/>
</g>
<defs>
<clipPath id="clip0_7_496">
<rect width="797" height="1600" rx="20" fill="white"/>
</clipPath>
</defs>
</svg>
