<svg width="797" height="1600" viewBox="0 0 797 1600" fill="none" xmlns="http://www.w3.org/2000/svg">
<g clip-path="url(#clip0_7_428)">
<rect width="797" height="1600" rx="20" fill="black"/>
<g clip-path="url(#clip1_7_428)">
<mask id="mask0_7_428" style="mask-type:luminance" maskUnits="userSpaceOnUse" x="100" y="1340" width="139" height="149">
<path d="M238.404 1376.32L142.709 1340L100 1452.53L195.695 1488.85L238.404 1376.32Z" fill="white"/>
</mask>
<g mask="url(#mask0_7_428)">
<path d="M147.847 1470.69C166.693 1416.86 166.063 1415.11 121.355 1396.26C167.303 1411.84 168.934 1410.94 190.557 1358.16C171.711 1411.99 172.341 1413.74 217.05 1432.58C171.098 1417.02 169.477 1417.9 147.847 1470.69Z" fill="#F3F3F3"/>
</g>
</g>
<g clip-path="url(#clip2_7_428)">
<mask id="mask1_7_428" style="mask-type:luminance" maskUnits="userSpaceOnUse" x="611" y="1481" width="91" height="97">
<path d="M701.003 1504.62L638.773 1481L611 1554.18L673.229 1577.79L701.003 1504.62Z" fill="white"/>
</mask>
<g mask="url(#mask1_7_428)">
<path d="M642.115 1565.99C654.37 1530.98 653.96 1529.84 624.887 1517.59C654.766 1527.72 655.827 1527.13 669.888 1492.81C657.633 1527.81 658.043 1528.95 687.116 1541.21C657.235 1531.08 656.18 1531.66 642.115 1565.99Z" fill="#F3F3F3"/>
</g>
</g>
<g clip-path="url(#clip3_7_428)">
<mask id="mask2_7_428" style="mask-type:luminance" maskUnits="userSpaceOnUse" x="499" y="-27" width="103" height="111">
<path d="M601.424 -0.121781L530.607 -27L499 56.276L569.818 83.1542L601.424 -0.121781Z" fill="white"/>
</mask>
<g mask="url(#mask2_7_428)">
<path d="M534.409 69.7151C548.356 29.879 547.889 28.5816 514.803 14.638C548.807 26.1645 550.014 25.4951 566.016 -13.5609C552.069 26.2752 552.535 27.5727 585.621 41.5162C551.616 29.996 550.416 30.6471 534.409 69.7151Z" fill="#F3F3F3"/>
</g>
</g>
<g clip-path="url(#clip4_7_428)">
<mask id="mask3_7_428" style="mask-type:luminance" maskUnits="userSpaceOnUse" x="596" y="1284" width="121" height="167">
<path d="M716.575 1362.39L654.003 1284L596 1372.2L658.572 1450.58L716.575 1362.39Z" fill="white"/>
</mask>
<g mask="url(#mask3_7_428)">
<path d="M685.289 1323.19L659.544 1365.13L698.917 1363.82L659.648 1368.92L687.573 1406.48L657.783 1371.75L657.903 1426.19L655.042 1371.97L627.286 1411.39L653.031 1369.45L613.658 1370.76L652.927 1365.67L625.001 1328.1L654.792 1362.83L654.672 1308.4L657.532 1362.61L685.289 1323.19Z" fill="#F3F3F3"/>
</g>
</g>
<path d="M52 15C56.4183 15 60 18.5817 60 23L60 57C60 61.4183 56.4183 65 52 65L18 65C13.5817 65 10 61.4183 10 57L10 23C10 18.5817 13.5817 15 18 15L52 15Z" fill="white"/>
<path d="M52 110C56.4183 110 60 113.582 60 118L60 152C60 156.418 56.4183 160 52 160L18 160C13.5817 160 10 156.418 10 152L10 118C10 113.582 13.5817 110 18 110L52 110Z" fill="white"/>
<path d="M52 205C56.4183 205 60 208.582 60 213L60 247C60 251.418 56.4183 255 52 255L18 255C13.5817 255 10 251.418 10 247L10 213C10 208.582 13.5817 205 18 205L52 205Z" fill="white"/>
<path d="M52 300C56.4183 300 60 303.582 60 308L60 342C60 346.418 56.4183 350 52 350L18 350C13.5817 350 10 346.418 10 342L10 308C10 303.582 13.5817 300 18 300L52 300Z" fill="white"/>
<path d="M52 395C56.4183 395 60 398.582 60 403L60 437C60 441.418 56.4183 445 52 445L18 445C13.5817 445 10 441.418 10 437L10 403C10 398.582 13.5817 395 18 395L52 395Z" fill="white"/>
<path d="M52 490C56.4183 490 60 493.582 60 498L60 532C60 536.418 56.4183 540 52 540L18 540C13.5817 540 10 536.418 10 532L10 498C10 493.582 13.5817 490 18 490L52 490Z" fill="white"/>
<path d="M52 585C56.4183 585 60 588.582 60 593L60 627C60 631.418 56.4183 635 52 635L18 635C13.5817 635 10 631.418 10 627L10 593C10 588.582 13.5817 585 18 585L52 585Z" fill="white"/>
<path d="M52 680C56.4183 680 60 683.582 60 688L60 722C60 726.418 56.4183 730 52 730L18 730C13.5817 730 10 726.418 10 722L10 688C10 683.582 13.5817 680 18 680L52 680Z" fill="white"/>
<path d="M52 775C56.4183 775 60 778.582 60 783L60 817C60 821.418 56.4183 825 52 825L18 825C13.5817 825 10 821.418 10 817L10 783C10 778.582 13.5817 775 18 775L52 775Z" fill="white"/>
<path d="M52 870C56.4183 870 60 873.582 60 878L60 912C60 916.418 56.4183 920 52 920L18 920C13.5817 920 10 916.418 10 912L10 878C10 873.582 13.5817 870 18 870L52 870Z" fill="white"/>
<path d="M52 965C56.4183 965 60 968.582 60 973L60 1007C60 1011.42 56.4183 1015 52 1015L18 1015C13.5817 1015 10 1011.42 10 1007L10 973C10 968.582 13.5817 965 18 965L52 965Z" fill="white"/>
<path d="M52 1060C56.4183 1060 60 1063.58 60 1068L60 1102C60 1106.42 56.4183 1110 52 1110L18 1110C13.5817 1110 10 1106.42 10 1102L10 1068C10 1063.58 13.5817 1060 18 1060L52 1060Z" fill="white"/>
<path d="M52 1155C56.4183 1155 60 1158.58 60 1163L60 1197C60 1201.42 56.4183 1205 52 1205L18 1205C13.5817 1205 10 1201.42 10 1197L10 1163C10 1158.58 13.5817 1155 18 1155L52 1155Z" fill="white"/>
<path d="M52 1250C56.4183 1250 60 1253.58 60 1258L60 1292C60 1296.42 56.4183 1300 52 1300L18 1300C13.5817 1300 10 1296.42 10 1292L10 1258C10 1253.58 13.5817 1250 18 1250L52 1250Z" fill="white"/>
<path d="M52 1345C56.4183 1345 60 1348.58 60 1353L60 1387C60 1391.42 56.4183 1395 52 1395L18 1395C13.5817 1395 10 1391.42 10 1387L10 1353C10 1348.58 13.5817 1345 18 1345L52 1345Z" fill="white"/>
<path d="M52 1440C56.4183 1440 60 1443.58 60 1448L60 1482C60 1486.42 56.4183 1490 52 1490L18 1490C13.5817 1490 10 1486.42 10 1482L10 1448C10 1443.58 13.5817 1440 18 1440L52 1440Z" fill="white"/>
<path d="M52 1535C56.4183 1535 60 1538.58 60 1543L60 1577C60 1581.42 56.4183 1585 52 1585L18 1585C13.5817 1585 10 1581.42 10 1577L10 1543C10 1538.58 13.5817 1535 18 1535L52 1535Z" fill="white"/>
<path d="M779 15C783.418 15 787 18.5817 787 23L787 57C787 61.4183 783.418 65 779 65L745 65C740.582 65 737 61.4183 737 57L737 23C737 18.5817 740.582 15 745 15L779 15Z" fill="white"/>
<path d="M779 110C783.418 110 787 113.582 787 118L787 152C787 156.418 783.418 160 779 160L745 160C740.582 160 737 156.418 737 152L737 118C737 113.582 740.582 110 745 110L779 110Z" fill="white"/>
<path d="M779 205C783.418 205 787 208.582 787 213L787 247C787 251.418 783.418 255 779 255L745 255C740.582 255 737 251.418 737 247L737 213C737 208.582 740.582 205 745 205L779 205Z" fill="white"/>
<path d="M779 300C783.418 300 787 303.582 787 308L787 342C787 346.418 783.418 350 779 350L745 350C740.582 350 737 346.418 737 342L737 308C737 303.582 740.582 300 745 300L779 300Z" fill="white"/>
<path d="M779 395C783.418 395 787 398.582 787 403L787 437C787 441.418 783.418 445 779 445L745 445C740.582 445 737 441.418 737 437L737 403C737 398.582 740.582 395 745 395L779 395Z" fill="white"/>
<path d="M779 490C783.418 490 787 493.582 787 498L787 532C787 536.418 783.418 540 779 540L745 540C740.582 540 737 536.418 737 532L737 498C737 493.582 740.582 490 745 490L779 490Z" fill="white"/>
<path d="M779 585C783.418 585 787 588.582 787 593L787 627C787 631.418 783.418 635 779 635L745 635C740.582 635 737 631.418 737 627L737 593C737 588.582 740.582 585 745 585L779 585Z" fill="white"/>
<path d="M779 680C783.418 680 787 683.582 787 688L787 722C787 726.418 783.418 730 779 730L745 730C740.582 730 737 726.418 737 722L737 688C737 683.582 740.582 680 745 680L779 680Z" fill="white"/>
<path d="M779 775C783.418 775 787 778.582 787 783L787 817C787 821.418 783.418 825 779 825L745 825C740.582 825 737 821.418 737 817L737 783C737 778.582 740.582 775 745 775L779 775Z" fill="white"/>
<path d="M779 870C783.418 870 787 873.582 787 878L787 912C787 916.418 783.418 920 779 920L745 920C740.582 920 737 916.418 737 912L737 878C737 873.582 740.582 870 745 870L779 870Z" fill="white"/>
<path d="M779 965C783.418 965 787 968.582 787 973L787 1007C787 1011.42 783.418 1015 779 1015L745 1015C740.582 1015 737 1011.42 737 1007L737 973C737 968.582 740.582 965 745 965L779 965Z" fill="white"/>
<path d="M779 1060C783.418 1060 787 1063.58 787 1068L787 1102C787 1106.42 783.418 1110 779 1110L745 1110C740.582 1110 737 1106.42 737 1102L737 1068C737 1063.58 740.582 1060 745 1060L779 1060Z" fill="white"/>
<path d="M779 1155C783.418 1155 787 1158.58 787 1163L787 1197C787 1201.42 783.418 1205 779 1205L745 1205C740.582 1205 737 1201.42 737 1197L737 1163C737 1158.58 740.582 1155 745 1155L779 1155Z" fill="white"/>
<path d="M779 1250C783.418 1250 787 1253.58 787 1258L787 1292C787 1296.42 783.418 1300 779 1300L745 1300C740.582 1300 737 1296.42 737 1292L737 1258C737 1253.58 740.582 1250 745 1250L779 1250Z" fill="white"/>
<path d="M779 1345C783.418 1345 787 1348.58 787 1353L787 1387C787 1391.42 783.418 1395 779 1395L745 1395C740.582 1395 737 1391.42 737 1387L737 1353C737 1348.58 740.582 1345 745 1345L779 1345Z" fill="white"/>
<path d="M779 1440C783.418 1440 787 1443.58 787 1448L787 1482C787 1486.42 783.418 1490 779 1490L745 1490C740.582 1490 737 1486.42 737 1482L737 1448C737 1443.58 740.582 1440 745 1440L779 1440Z" fill="white"/>
<path d="M779 1535C783.418 1535 787 1538.58 787 1543L787 1577C787 1581.42 783.418 1585 779 1585L745 1585C740.582 1585 737 1581.42 737 1577L737 1543C737 1538.58 740.582 1535 745 1535L779 1535Z" fill="white"/>
</g>
<defs>
<clipPath id="clip0_7_428">
<rect width="797" height="1600" rx="20" fill="white"/>
</clipPath>
<clipPath id="clip1_7_428">
<rect width="102.356" height="120.362" fill="white" transform="translate(142.709 1340) rotate(20.7837)"/>
</clipPath>
<clipPath id="clip2_7_428">
<rect width="66.5606" height="78.2697" fill="white" transform="translate(638.773 1481) rotate(20.7837)"/>
</clipPath>
<clipPath id="clip3_7_428">
<rect width="75.747" height="89.0723" fill="white" transform="translate(530.607 -27) rotate(20.7837)"/>
</clipPath>
<clipPath id="clip4_7_428">
<rect width="100.298" height="105.561" fill="white" transform="matrix(0.623862 0.781534 -0.54947 0.835513 654.003 1284)"/>
</clipPath>
</defs>
</svg>
