<svg width="797" height="1600" viewBox="0 0 797 1600" fill="none" xmlns="http://www.w3.org/2000/svg">
<g clip-path="url(#clip0_7_554)">
<rect width="797" height="1600" rx="20" fill="white"/>
<path d="M950 1680L950 1460L730 1460L730 1680L950 1680Z" fill="white"/>
<path d="M950 1460L950 1239L730 1239L730 1460L950 1460Z" fill="#3C436D"/>
<path d="M950 1239L950 1018L730 1018L730 1239L950 1239Z" fill="white"/>
<path d="M950 1018L950 798L730 798L730 1018L950 1018Z" fill="#3C436D"/>
<path d="M950 798L950 578L730 578L730 798L950 798Z" fill="white"/>
<path d="M950 578L950 358L730 358L730 578L950 578Z" fill="#3C436D"/>
<path d="M950 358L950 138L730 138L730 358L950 358Z" fill="white"/>
<path d="M950 138L950 -82L730 -82L730 138L950 138Z" fill="#3C436D"/>
<path d="M729.5 -82L729.5 138L509.5 138L509.5 -82L729.5 -82Z" fill="white"/>
<path d="M729.5 138L729.5 358L509.5 358L509.5 138L729.5 138Z" fill="#3C436D"/>
<path d="M730 358L730 578L509 578L509 358L730 358Z" fill="white"/>
<path d="M729.5 578L729.5 798L509.5 798L509.5 578L729.5 578Z" fill="#3C436D"/>
<path d="M729.5 798L729.5 1018L509.5 1018L509.5 798L729.5 798Z" fill="white"/>
<path d="M730 1018L730 1238L509 1238L509 1018L730 1018Z" fill="#3C436D"/>
<path d="M729.5 1238L729.5 1458L509.5 1458L509.5 1238L729.5 1238Z" fill="white"/>
<path d="M729.5 1458L729.5 1678L509.5 1678L509.5 1458L729.5 1458Z" fill="#3C436D"/>
<path d="M509 1680L509 1460L289 1460L289 1680L509 1680Z" fill="white"/>
<path d="M509 1460L509 1240L289 1240L289 1460L509 1460Z" fill="#3C436D"/>
<path d="M509 1240L509 1020L289 1020L289 1240L509 1240Z" fill="white"/>
<path d="M509 1020L509 800L289 800L289 1020L509 1020Z" fill="#3C436D"/>
<path d="M509 800L509 580L289 580L289 800L509 800Z" fill="white"/>
<path d="M509 580L509 360L289 360L289 580L509 580Z" fill="#3C436D"/>
<path d="M509 360L509 140L289 140L289 360L509 360Z" fill="white"/>
<path d="M509 140L509 -80L289 -80L289 140L509 140Z" fill="#3C436D"/>
<path d="M289 -82L289 138L68 138L68 -82L289 -82Z" fill="white"/>
<path d="M288.5 138L288.5 358L68.5 358L68.5 138L288.5 138Z" fill="#3C436D"/>
<path d="M288.5 358L288.5 578L68.5 578L68.5 358L288.5 358Z" fill="white"/>
<path d="M289 578L289 798L68 798L68 578L289 578Z" fill="#3C436D"/>
<path d="M289 798L289 1018L68 1018L68 798L289 798Z" fill="white"/>
<path d="M289 1018L289 1238L68 1238L68 1018L289 1018Z" fill="#3C436D"/>
<path d="M289 1238L289 1458L68 1458L68 1238L289 1238Z" fill="white"/>
<path d="M289 1458L289 1678L68 1678L68 1458L289 1458Z" fill="#3C436D"/>
<path d="M68 1680L68 1460L-152 1460L-152 1680L68 1680Z" fill="white"/>
<path d="M68 1460L68 1240L-152 1240L-152 1460L68 1460Z" fill="#3C436D"/>
<path d="M68 1240L68 1020L-152 1020L-152 1240L68 1240Z" fill="white"/>
<path d="M68 1020L68 800L-152 800L-152 1020L68 1020Z" fill="#3C436D"/>
<path d="M68 800L68 580L-152 580L-152 800L68 800Z" fill="white"/>
<path d="M68 580L68 360L-152 360L-152 580L68 580Z" fill="#3C436D"/>
<path d="M68 360L68 140L-152 140L-152 360L68 360Z" fill="white"/>
<path d="M68 140L68 -80L-152 -80L-152 140L68 140Z" fill="#3C436D"/>
<g filter="url(#filter0_d_7_554)">
<path d="M310.344 1463.6C311.24 1463.6 311.923 1463.4 312.392 1462.99C312.883 1462.57 313.128 1461.93 313.128 1461.07C313.128 1460.26 312.872 1459.64 312.36 1459.22C311.869 1458.77 311.144 1458.54 310.184 1458.54C309.843 1458.54 309.555 1458.55 309.32 1458.58C309.107 1458.58 308.883 1458.6 308.648 1458.64V1463.6H310.344ZM308.68 1473.87C308.445 1473.94 308.072 1474 307.56 1474.06C307.069 1474.13 306.579 1474.16 306.088 1474.16C305.597 1474.16 305.16 1474.12 304.776 1474.03C304.413 1473.97 304.104 1473.84 303.848 1473.65C303.592 1473.46 303.4 1473.19 303.272 1472.85C303.144 1472.51 303.08 1472.06 303.08 1471.5V1456.43C303.08 1455.98 303.197 1455.64 303.432 1455.41C303.688 1455.15 304.029 1454.95 304.456 1454.8C305.181 1454.54 306.003 1454.36 306.92 1454.26C307.859 1454.13 308.797 1454.06 309.736 1454.06C312.68 1454.06 314.931 1454.69 316.488 1455.95C318.045 1457.21 318.824 1458.92 318.824 1461.07C318.824 1462.12 318.653 1463.07 318.312 1463.92C317.992 1464.75 317.501 1465.48 316.84 1466.1C316.2 1466.69 315.379 1467.16 314.376 1467.5C313.395 1467.82 312.253 1467.98 310.952 1467.98H308.68V1473.87ZM336.618 1473.97C336.404 1474.03 336.063 1474.1 335.594 1474.16C335.146 1474.22 334.676 1474.26 334.186 1474.26C333.716 1474.26 333.29 1474.22 332.906 1474.16C332.543 1474.1 332.234 1473.97 331.978 1473.78C331.722 1473.58 331.519 1473.33 331.37 1473.01C331.242 1472.67 331.178 1472.23 331.178 1471.7V1464.59C331.178 1463.72 330.954 1463.11 330.506 1462.77C330.079 1462.41 329.546 1462.22 328.906 1462.22C328.479 1462.22 328.074 1462.28 327.69 1462.38C327.306 1462.49 326.996 1462.62 326.762 1462.77V1473.97C326.548 1474.03 326.207 1474.1 325.738 1474.16C325.29 1474.22 324.82 1474.26 324.33 1474.26C323.86 1474.26 323.434 1474.22 323.05 1474.16C322.687 1474.1 322.378 1473.97 322.122 1473.78C321.866 1473.58 321.663 1473.33 321.514 1473.01C321.386 1472.67 321.322 1472.23 321.322 1471.7V1453.14C321.556 1453.09 321.898 1453.04 322.346 1452.98C322.815 1452.89 323.284 1452.85 323.754 1452.85C324.223 1452.85 324.639 1452.88 325.002 1452.94C325.386 1453.01 325.706 1453.14 325.962 1453.33C326.218 1453.52 326.41 1453.79 326.538 1454.13C326.687 1454.45 326.762 1454.87 326.762 1455.41V1458.54C327.039 1458.44 327.455 1458.32 328.01 1458.19C328.586 1458.04 329.215 1457.97 329.898 1457.97C332.01 1457.97 333.652 1458.5 334.826 1459.57C336.02 1460.61 336.618 1462.18 336.618 1464.27V1473.97ZM356.073 1466.22C356.073 1467.55 355.87 1468.73 355.465 1469.78C355.059 1470.8 354.483 1471.66 353.737 1472.37C353.011 1473.07 352.137 1473.61 351.113 1473.97C350.089 1474.33 348.947 1474.51 347.689 1474.51C346.43 1474.51 345.289 1474.32 344.265 1473.94C343.241 1473.55 342.355 1473.01 341.609 1472.3C340.883 1471.58 340.318 1470.7 339.913 1469.68C339.507 1468.66 339.305 1467.5 339.305 1466.22C339.305 1464.97 339.507 1463.82 339.913 1462.8C340.318 1461.78 340.883 1460.91 341.609 1460.21C342.355 1459.48 343.241 1458.93 344.265 1458.54C345.289 1458.16 346.43 1457.97 347.689 1457.97C348.947 1457.97 350.089 1458.17 351.113 1458.58C352.137 1458.96 353.011 1459.51 353.737 1460.24C354.483 1460.94 355.059 1461.81 355.465 1462.83C355.87 1463.86 356.073 1464.99 356.073 1466.22ZM344.873 1466.22C344.873 1467.53 345.118 1468.53 345.609 1469.23C346.121 1469.91 346.825 1470.26 347.72 1470.26C348.617 1470.26 349.299 1469.9 349.769 1469.2C350.259 1468.5 350.505 1467.5 350.505 1466.22C350.505 1464.94 350.259 1463.96 349.769 1463.28C349.278 1462.58 348.585 1462.22 347.689 1462.22C346.793 1462.22 346.099 1462.58 345.609 1463.28C345.118 1463.96 344.873 1464.94 344.873 1466.22ZM374.823 1466.22C374.823 1467.55 374.62 1468.73 374.215 1469.78C373.809 1470.8 373.233 1471.66 372.487 1472.37C371.761 1473.07 370.887 1473.61 369.863 1473.97C368.839 1474.33 367.697 1474.51 366.439 1474.51C365.18 1474.51 364.039 1474.32 363.015 1473.94C361.991 1473.55 361.105 1473.01 360.359 1472.3C359.633 1471.58 359.068 1470.7 358.663 1469.68C358.257 1468.66 358.055 1467.5 358.055 1466.22C358.055 1464.97 358.257 1463.82 358.663 1462.8C359.068 1461.78 359.633 1460.91 360.359 1460.21C361.105 1459.48 361.991 1458.93 363.015 1458.54C364.039 1458.16 365.18 1457.97 366.439 1457.97C367.697 1457.97 368.839 1458.17 369.863 1458.58C370.887 1458.96 371.761 1459.51 372.487 1460.24C373.233 1460.94 373.809 1461.81 374.215 1462.83C374.62 1463.86 374.823 1464.99 374.823 1466.22ZM363.623 1466.22C363.623 1467.53 363.868 1468.53 364.359 1469.23C364.871 1469.91 365.575 1470.26 366.47 1470.26C367.367 1470.26 368.049 1469.9 368.519 1469.2C369.009 1468.5 369.255 1467.5 369.255 1466.22C369.255 1464.94 369.009 1463.96 368.519 1463.28C368.028 1462.58 367.335 1462.22 366.439 1462.22C365.543 1462.22 364.849 1462.58 364.359 1463.28C363.868 1463.96 363.623 1464.94 363.623 1466.22ZM382.917 1468.66C382.917 1469.21 383.087 1469.61 383.429 1469.84C383.791 1470.07 384.293 1470.19 384.933 1470.19C385.253 1470.19 385.583 1470.17 385.925 1470.13C386.266 1470.06 386.565 1469.99 386.821 1469.9C387.013 1470.14 387.173 1470.41 387.301 1470.7C387.45 1470.98 387.525 1471.32 387.525 1471.73C387.525 1472.54 387.215 1473.2 386.597 1473.71C385.999 1474.22 384.933 1474.48 383.397 1474.48C381.519 1474.48 380.069 1474.05 379.045 1473.2C378.042 1472.35 377.541 1470.96 377.541 1469.04V1455.34C377.775 1455.28 378.106 1455.22 378.533 1455.15C378.981 1455.07 379.45 1455.02 379.941 1455.02C380.879 1455.02 381.605 1455.19 382.117 1455.54C382.65 1455.86 382.917 1456.55 382.917 1457.62V1459.66H387.109C387.237 1459.9 387.354 1460.2 387.461 1460.56C387.589 1460.9 387.653 1461.29 387.653 1461.71C387.653 1462.46 387.482 1463 387.141 1463.34C386.821 1463.66 386.383 1463.82 385.829 1463.82H382.917V1468.66ZM406.198 1466.22C406.198 1467.55 405.995 1468.73 405.59 1469.78C405.184 1470.8 404.608 1471.66 403.862 1472.37C403.136 1473.07 402.262 1473.61 401.238 1473.97C400.214 1474.33 399.072 1474.51 397.814 1474.51C396.555 1474.51 395.414 1474.32 394.39 1473.94C393.366 1473.55 392.48 1473.01 391.734 1472.3C391.008 1471.58 390.443 1470.7 390.038 1469.68C389.632 1468.66 389.43 1467.5 389.43 1466.22C389.43 1464.97 389.632 1463.82 390.038 1462.8C390.443 1461.78 391.008 1460.91 391.734 1460.21C392.48 1459.48 393.366 1458.93 394.39 1458.54C395.414 1458.16 396.555 1457.97 397.814 1457.97C399.072 1457.97 400.214 1458.17 401.238 1458.58C402.262 1458.96 403.136 1459.51 403.862 1460.24C404.608 1460.94 405.184 1461.81 405.59 1462.83C405.995 1463.86 406.198 1464.99 406.198 1466.22ZM394.998 1466.22C394.998 1467.53 395.243 1468.53 395.734 1469.23C396.246 1469.91 396.95 1470.26 397.845 1470.26C398.742 1470.26 399.424 1469.9 399.894 1469.2C400.384 1468.5 400.63 1467.5 400.63 1466.22C400.63 1464.94 400.384 1463.96 399.894 1463.28C399.403 1462.58 398.71 1462.22 397.814 1462.22C396.918 1462.22 396.224 1462.58 395.734 1463.28C395.243 1463.96 394.998 1464.94 394.998 1466.22ZM408.916 1453.17C409.129 1453.1 409.47 1453.04 409.94 1452.98C410.409 1452.89 410.889 1452.85 411.38 1452.85C411.849 1452.85 412.265 1452.88 412.628 1452.94C413.012 1453.01 413.332 1453.14 413.588 1453.33C413.844 1453.52 414.036 1453.79 414.164 1454.13C414.292 1454.45 414.356 1454.87 414.356 1455.41V1458.54C414.889 1458.33 415.39 1458.18 415.86 1458.1C416.35 1458.01 416.884 1457.97 417.46 1457.97C418.484 1457.97 419.454 1458.15 420.372 1458.51C421.289 1458.87 422.1 1459.41 422.804 1460.11C423.508 1460.79 424.062 1461.65 424.468 1462.67C424.873 1463.7 425.076 1464.88 425.076 1466.22C425.076 1467.61 424.862 1468.83 424.436 1469.87C424.03 1470.9 423.454 1471.75 422.708 1472.43C421.961 1473.11 421.044 1473.64 419.956 1474C418.889 1474.34 417.705 1474.51 416.404 1474.51C414.996 1474.51 413.801 1474.34 412.82 1474C411.838 1473.68 411.006 1473.27 410.324 1472.78C409.385 1472.12 408.916 1471.27 408.916 1470.22V1453.17ZM416.404 1470.22C417.385 1470.22 418.142 1469.89 418.676 1469.23C419.23 1468.55 419.508 1467.55 419.508 1466.22C419.508 1464.88 419.23 1463.88 418.676 1463.22C418.121 1462.55 417.374 1462.22 416.436 1462.22C416.009 1462.22 415.636 1462.27 415.316 1462.35C415.017 1462.44 414.686 1462.57 414.324 1462.74V1469.71C414.558 1469.86 414.836 1469.99 415.156 1470.1C415.497 1470.18 415.913 1470.22 416.404 1470.22ZM443.823 1466.22C443.823 1467.55 443.62 1468.73 443.215 1469.78C442.809 1470.8 442.233 1471.66 441.487 1472.37C440.761 1473.07 439.887 1473.61 438.863 1473.97C437.839 1474.33 436.697 1474.51 435.439 1474.51C434.18 1474.51 433.039 1474.32 432.015 1473.94C430.991 1473.55 430.105 1473.01 429.359 1472.3C428.633 1471.58 428.068 1470.7 427.663 1469.68C427.257 1468.66 427.055 1467.5 427.055 1466.22C427.055 1464.97 427.257 1463.82 427.663 1462.8C428.068 1461.78 428.633 1460.91 429.359 1460.21C430.105 1459.48 430.991 1458.93 432.015 1458.54C433.039 1458.16 434.18 1457.97 435.439 1457.97C436.697 1457.97 437.839 1458.17 438.863 1458.58C439.887 1458.96 440.761 1459.51 441.487 1460.24C442.233 1460.94 442.809 1461.81 443.215 1462.83C443.62 1463.86 443.823 1464.99 443.823 1466.22ZM432.623 1466.22C432.623 1467.53 432.868 1468.53 433.359 1469.23C433.871 1469.91 434.575 1470.26 435.47 1470.26C436.367 1470.26 437.049 1469.9 437.519 1469.2C438.009 1468.5 438.255 1467.5 438.255 1466.22C438.255 1464.94 438.009 1463.96 437.519 1463.28C437.028 1462.58 436.335 1462.22 435.439 1462.22C434.543 1462.22 433.849 1462.58 433.359 1463.28C432.868 1463.96 432.623 1464.94 432.623 1466.22ZM462.573 1466.22C462.573 1467.55 462.37 1468.73 461.965 1469.78C461.559 1470.8 460.983 1471.66 460.237 1472.37C459.511 1473.07 458.637 1473.61 457.613 1473.97C456.589 1474.33 455.447 1474.51 454.189 1474.51C452.93 1474.51 451.789 1474.32 450.765 1473.94C449.741 1473.55 448.855 1473.01 448.109 1472.3C447.383 1471.58 446.818 1470.7 446.413 1469.68C446.007 1468.66 445.805 1467.5 445.805 1466.22C445.805 1464.97 446.007 1463.82 446.413 1462.8C446.818 1461.78 447.383 1460.91 448.109 1460.21C448.855 1459.48 449.741 1458.93 450.765 1458.54C451.789 1458.16 452.93 1457.97 454.189 1457.97C455.447 1457.97 456.589 1458.17 457.613 1458.58C458.637 1458.96 459.511 1459.51 460.237 1460.24C460.983 1460.94 461.559 1461.81 461.965 1462.83C462.37 1463.86 462.573 1464.99 462.573 1466.22ZM451.373 1466.22C451.373 1467.53 451.618 1468.53 452.109 1469.23C452.621 1469.91 453.325 1470.26 454.22 1470.26C455.117 1470.26 455.799 1469.9 456.269 1469.2C456.759 1468.5 457.005 1467.5 457.005 1466.22C457.005 1464.94 456.759 1463.96 456.269 1463.28C455.778 1462.58 455.085 1462.22 454.189 1462.22C453.293 1462.22 452.599 1462.58 452.109 1463.28C451.618 1463.96 451.373 1464.94 451.373 1466.22ZM470.667 1468.66C470.667 1469.21 470.837 1469.61 471.179 1469.84C471.541 1470.07 472.043 1470.19 472.683 1470.19C473.003 1470.19 473.333 1470.17 473.675 1470.13C474.016 1470.06 474.315 1469.99 474.571 1469.9C474.763 1470.14 474.923 1470.41 475.051 1470.7C475.2 1470.98 475.275 1471.32 475.275 1471.73C475.275 1472.54 474.965 1473.2 474.347 1473.71C473.749 1474.22 472.683 1474.48 471.147 1474.48C469.269 1474.48 467.819 1474.05 466.795 1473.2C465.792 1472.35 465.291 1470.96 465.291 1469.04V1455.34C465.525 1455.28 465.856 1455.22 466.283 1455.15C466.731 1455.07 467.2 1455.02 467.691 1455.02C468.629 1455.02 469.355 1455.19 469.867 1455.54C470.4 1455.86 470.667 1456.55 470.667 1457.62V1459.66H474.859C474.987 1459.9 475.104 1460.2 475.211 1460.56C475.339 1460.9 475.403 1461.29 475.403 1461.71C475.403 1462.46 475.232 1463 474.891 1463.34C474.571 1463.66 474.133 1463.82 473.579 1463.82H470.667V1468.66ZM493.399 1473.97C493.186 1474.03 492.844 1474.1 492.375 1474.16C491.927 1474.22 491.458 1474.26 490.967 1474.26C490.498 1474.26 490.071 1474.22 489.687 1474.16C489.324 1474.1 489.015 1473.97 488.759 1473.78C488.503 1473.58 488.3 1473.33 488.151 1473.01C488.023 1472.67 487.959 1472.23 487.959 1471.7V1464.59C487.959 1463.72 487.735 1463.11 487.287 1462.77C486.86 1462.41 486.327 1462.22 485.687 1462.22C485.26 1462.22 484.855 1462.28 484.471 1462.38C484.087 1462.49 483.778 1462.62 483.543 1462.77V1473.97C483.33 1474.03 482.988 1474.1 482.519 1474.16C482.071 1474.22 481.602 1474.26 481.111 1474.26C480.642 1474.26 480.215 1474.22 479.831 1474.16C479.468 1474.1 479.159 1473.97 478.903 1473.78C478.647 1473.58 478.444 1473.33 478.295 1473.01C478.167 1472.67 478.103 1472.23 478.103 1471.7V1453.14C478.338 1453.09 478.679 1453.04 479.127 1452.98C479.596 1452.89 480.066 1452.85 480.535 1452.85C481.004 1452.85 481.42 1452.88 481.783 1452.94C482.167 1453.01 482.487 1453.14 482.743 1453.33C482.999 1453.52 483.191 1453.79 483.319 1454.13C483.468 1454.45 483.543 1454.87 483.543 1455.41V1458.54C483.82 1458.44 484.236 1458.32 484.791 1458.19C485.367 1458.04 485.996 1457.97 486.679 1457.97C488.791 1457.97 490.434 1458.5 491.607 1459.57C492.802 1460.61 493.399 1462.18 493.399 1464.27V1473.97Z" fill="white"/>
</g>
</g>
<defs>
<filter id="filter0_d_7_554" x="293.08" y="1442.85" width="210.319" height="41.6641" filterUnits="userSpaceOnUse" color-interpolation-filters="sRGB">
<feFlood flood-opacity="0" result="BackgroundImageFix"/>
<feColorMatrix in="SourceAlpha" type="matrix" values="0 0 0 0 0 0 0 0 0 0 0 0 0 0 0 0 0 0 127 0" result="hardAlpha"/>
<feOffset/>
<feGaussianBlur stdDeviation="5"/>
<feComposite in2="hardAlpha" operator="out"/>
<feColorMatrix type="matrix" values="0 0 0 0 0 0 0 0 0 0 0 0 0 0 0 0 0 0 0.87 0"/>
<feBlend mode="normal" in2="BackgroundImageFix" result="effect1_dropShadow_7_554"/>
<feBlend mode="normal" in="SourceGraphic" in2="effect1_dropShadow_7_554" result="shape"/>
</filter>
<clipPath id="clip0_7_554">
<rect width="797" height="1600" rx="20" fill="white"/>
</clipPath>
</defs>
</svg>
